<?xml version="1.0" encoding="UTF-8"?>
<svg id="Layer_1" xmlns="http://www.w3.org/2000/svg" version="1.1" viewBox="0 0 60 60">
  <!-- Generator: Adobe Illustrator 29.0.1, SVG Export Plug-In . SVG Version: 2.1.0 Build 192)  -->
  <defs>
    <style>
      .st0 {
        fill: #074c02;
      }
    </style>
  </defs>
  <g id="Tp6ONJ.tif">
    <g>
      <path class="st0" d="M53.7,34.9v2.2c-.6,1.2-4.2,1.3-4.6,1.9s0,4.5-.2,5.8c-.6,3.8-4.5,4.7-7.8,4.3v8c0,.3-1.1,1.3-1.3,1.7H14.1c-1.2-1.2-.3-3.2-2.4-3.4s-1.9.8-2.6.4-2.2-3.3-2.2-3.8c-.2-1.6,1.4-1.7,1.6-2.8s-1.5-1.8-1.6-3.1,1.6-3.8,2.2-4.1c1-.5,2,.5,2.8.3s1.5-1.1,1.4-1.9-3.1-4.2-3.7-5.3C3.1,23.6,6.4,7.5,19.8,3c15.2-5.1,28.9,2.9,30.1,19.2s-.3,4.2,0,5.9,2.2,4.5,2.8,5.7.4.9.9,1.1ZM26.1,42.1c.2-.3,0-5.9,0-6.9s-2.9.5-3.6-.9,0-2.1-.2-2.9-.8-.4-1-.9c-.4-.9-.2-1.9-.9-3.2-1.8-3.2-3.8-3.6-4-8.2-.7-15.5,23.3-15.3,21.7.9s-2.8,4.8-4.1,7.5-.4,2.3-.8,3.3-.7.3-.7.6c-.2.8.2,1.5-.2,2.5-.8,2.1-3.8,1.1-3.8,1.3v7.7c0,.6-2.2,1.4-2.4,1.7-.3.5.3,1.1.1,1.7s-1.3,1-1.5,1.7c-.7,2.4,1.5,2.7,1.5,3.7s-1.6,3.4-1.9,3.7c-.9,1.1-2.3,0-3.3,0s-1.4.6-1.1,1.2h19.2v-9.3s.4-.5.5-.5h5c0,0,1.4-.8,1.6-1,1.8-1.9,0-6.3,1-8.2s3.1-1.3,4.1-1.6.6.2.4-.5c-.6-2.1-3.3-5-3.7-7s0-6.1-.4-9c-2-12.9-13.2-18.3-25.3-15.1S5.2,23.8,12.1,34.8s2.7,3.8,3,4c1,.5,2.9-.2,3.8.3s.5,2.3,1.1,2.7c1.3.8,2.8-.3,3.7,0s.4.9.7.9,1.7-.6,1.7-.7ZM26.1,28.9v-5.5c0-.4-3.7-3.4-2.8-4.8s3.3,2.1,3.9,2.8c1-.7,1.8-3.3,3.1-3.2,2.8.2-2,5.1-2,5.5v5.2c.6-.1,2.4.2,2.8,0s.9-2.5,1.4-3.2c1.3-2.1,3-2.8,3.4-5.7,1.8-13.5-18.7-13.4-17.2-.3.4,3.3,2.4,4.2,3.8,6.6s.8,2.6.9,2.7c.2.2,2.2,0,2.8,0ZM30.2,31.4h-5.7v1.6h5.7v-1.6ZM22.9,44.3c-.5-.3-1.6.4-2.7,0s-2.1-1.2-2.3-1.5c-.7-1,.1-2.1-2-1.8s-.4,1.1-.9,1.8-2.6,1.6-3,1.6c-.8,0-2.6-.9-2.6,1.2s1,1,1.2,1.6.2,2.7,0,3.2-1.9,1.2-.6,2.5,1.7-.2,2.9.2,1.9,1.1,2,1.2c.7.8.2,1.9,1.1,2.1,2.2.3,1.4-.9,2.2-1.9s1.8-1.3,2.1-1.4c1.1-.4,2,.2,2.5,0,1.8-.9,0-1.9-.2-2.4s-.3-3.2,0-3.9,1.1-1,1.1-1.3-.5-1.3-.6-1.4Z"/>
      <path class="st0" d="M16.2,44.7c5.9-.2,5.5,9.3-.9,8s-3.7-7.9.9-8ZM17.8,47.5c-1.7-1.7-4.7,1.2-2.6,2.8s4.1-1.3,2.6-2.8Z"/>
    </g>
  </g>
</svg>