<?xml version="1.0" encoding="UTF-8"?>
<svg id="Layer_1" xmlns="http://www.w3.org/2000/svg" version="1.1" viewBox="0 0 505.6 505.6">
  <!-- Generator: Adobe Illustrator 29.0.1, SVG Export Plug-In . SVG Version: 2.1.0 Build 192)  -->
  <defs>
    <style>
      .st0 {
        fill: #ebb44d;
      }

      .st1 {
        fill: #122213;
      }

      .st2 {
        fill: #a0d07a;
      }

      .st3 {
        fill: #92d7eb;
      }
    </style>
  </defs>
  <g>
    <path class="st2" d="M355.6,252.8c0,67.6-37.5,126.6-92.8,157.2,20.6,8.8,43.2,13.7,67,13.7,94.2,0,171-76.7,171-171s-96.6-168.3-171-171c-28.1-1.1-51.5,6.7-67,13.7,55.3,30.7,92.8,89.7,92.8,157.2v.2h0Z"/>
    <path class="st0" d="M150,252.8c0-67.6,37.5-126.6,92.8-157.2-20.6-8.8-43.2-13.7-67-13.7C81.6,81.9,4.8,158.5,4.8,252.9s96.6,168.3,171,171c28.1,1.1,51.5-6.7,67-13.7-55.3-30.7-92.8-89.7-92.8-157.2v-.2h0Z"/>
    <path class="st3" d="M346.8,252.8c0-66.6-38.3-124.4-94.1-152.7-55.7,28.2-94.1,86-94.1,152.7s38.3,124.4,94.1,152.7c55.7-28.2,94.1-86,94.1-152.7Z"/>
  </g>
  <g>
    <path class="st1" d="M52.2,231v2.5h-6.4v3.9h4.9v2.5h-4.9v6.5h-3.1v-15.3h9.5,0Z"/>
    <path class="st1" d="M65.7,234.1v12.2h-3.1v-1.6c-.4.5-.9,1-1.6,1.2-.6.3-1.3.4-2.1.4s-1.8-.2-2.5-.6c-.7-.4-1.3-1-1.8-1.8s-.6-1.8-.6-2.8v-7.1h3.1v6.7c0,1,.3,1.7.7,2.2.5.5,1.1.8,1.9.8s1.5-.3,2-.8c.4-.5.7-1.2.7-2.2v-6.7h3.2Z"/>
    <path class="st1" d="M72.4,236.6v5.9c0,.4,0,.7.3.9.2.2.5.3,1,.3h1.4v2.6h-1.9c-2.6,0-3.9-1.2-3.9-3.8v-5.9h-1.4v-2.5h1.4v-3h3.1v3h2.7v2.5h-2.7,0Z"/>
    <path class="st1" d="M88.8,234.1v12.2h-3.1v-1.6c-.4.5-.9,1-1.6,1.2-.6.3-1.3.4-2.1.4s-1.8-.2-2.5-.6c-.7-.4-1.3-1-1.8-1.8s-.6-1.8-.6-2.8v-7.1h3.1v6.7c0,1,.3,1.7.7,2.2.5.5,1.1.8,1.9.8s1.5-.3,2-.8c.4-.5.7-1.2.7-2.2v-6.7h3.2Z"/>
    <path class="st1" d="M96.4,234.5c.6-.4,1.4-.5,2.2-.5v3.2h-.8c-1,0-1.7.3-2.2.7s-.7,1.2-.7,2.4v6h-3.1v-12.2h3.1v1.8c.4-.6.9-1.1,1.6-1.5h0Z"/>
    <path class="st1" d="M111.8,241.1h-8.8c0,.9.4,1.6.9,2.1s1.2.8,2,.8c1.1,0,1.9-.5,2.5-1.5h3.3c-.4,1.1-1.1,2.1-2,2.9s-2.2,1.1-3.7,1.1-2.2-.3-3.2-.8c-1-.5-1.7-1.2-2.2-2.2s-.8-2-.8-3.3.3-2.4.8-3.3c.5-1,1.2-1.7,2.1-2.2,1-.5,2-.8,3.2-.8s2.2.3,3.1.8c.9.5,1.7,1.2,2.1,2.1.5.9.8,1.9.8,3.2s0,.9,0,1.2h0ZM108.7,239c0-.8-.3-1.4-.9-1.9-.5-.4-1.2-.7-2-.7s-1.4.3-1.9.7-.9,1.1-1,1.9h5.8Z"/>
    <path class="st1" d="M40.9,257.2v2.5h-4v12.8h-3.1v-12.8h-4.1v-2.5h11.2Z"/>
    <path class="st1" d="M52.4,260.7c.7.4,1.3,1,1.7,1.8s.6,1.8.6,2.8v7.1h-3.1v-6.7c0-1-.3-1.7-.7-2.2-.5-.5-1.1-.8-1.9-.8s-1.5.3-2,.8c-.5.5-.7,1.2-.7,2.2v6.7h-3.1v-16.2h3.1v5.6c.4-.5.9-1,1.6-1.2s1.4-.4,2.2-.4,1.8.2,2.5.6h0Z"/>
    <path class="st1" d="M57.8,258.4c-.4-.4-.5-.8-.5-1.3s.2-1,.5-1.3.8-.5,1.3-.5,1,.2,1.3.5.5.8.5,1.3-.2,1-.5,1.3-.8.5-1.3.5-1-.2-1.3-.5ZM60.7,260.4v12.2h-3.1v-12.2h3.1Z"/>
    <path class="st1" d="M73.9,261.5c.9.9,1.3,2.2,1.3,3.9v7.1h-3.1v-6.7c0-1-.3-1.7-.7-2.2-.5-.5-1.1-.8-1.9-.8s-1.5.3-2,.8c-.5.5-.7,1.2-.7,2.2v6.7h-3.1v-12.2h3.1v1.5c.4-.5,1-1,1.6-1.2.6-.3,1.3-.4,2.1-.4,1.4,0,2.6.4,3.5,1.4h0Z"/>
    <path class="st1" d="M85.3,272.5l-4.1-5.2v5.2h-3.1v-16.2h3.1v9.2l4-5.2h3.9l-5.3,6.1,5.3,6h-4,.2Z"/>
    <path class="st1" d="M91.1,258.4c-.4-.4-.5-.8-.5-1.3s.2-1,.5-1.3.8-.5,1.3-.5,1,.2,1.3.5.5.8.5,1.3-.2,1-.5,1.3-.8.5-1.3.5-1-.2-1.3-.5ZM94,260.4v12.2h-3.1v-12.2h3.1Z"/>
    <path class="st1" d="M107.2,261.5c.9.9,1.3,2.2,1.3,3.9v7.1h-3.1v-6.7c0-1-.3-1.7-.7-2.2-.5-.5-1.1-.8-1.9-.8s-1.5.3-2,.8c-.5.5-.7,1.2-.7,2.2v6.7h-3.1v-12.2h3.1v1.5c.4-.5,1-1,1.6-1.2.6-.3,1.3-.4,2.1-.4,1.4,0,2.6.4,3.5,1.4h0Z"/>
    <path class="st1" d="M118.6,260.7c.7.4,1.2.8,1.7,1.4v-1.8h3.1v12.3c0,1.1-.3,2.1-.7,3s-1.1,1.6-2,2.1-2,.8-3.3.8-3.2-.4-4.2-1.2c-1.1-.8-1.8-1.9-1.8-3.3h3.1c.2.5.5,1,1.1,1.3s1.1.5,1.9.5,1.6-.3,2.2-.8.9-1.3.9-2.5v-1.8c-.4.5-1,1.1-1.7,1.4-.7.4-1.5.5-2.4.5s-1.9-.3-2.8-.8-1.5-1.2-2-2.2-.7-2-.7-3.3.3-2.3.7-3.2c.5-1,1.1-1.7,2-2.2s1.8-.8,2.8-.8,1.7.2,2.4.5h0ZM119.7,264.5c-.3-.5-.7-1-1.2-1.2-.5-.3-1.1-.4-1.6-.4s-1.1.2-1.6.4c-.4.3-.9.7-1.1,1.2s-.4,1.1-.4,1.9.2,1.4.4,1.9.7,1,1.2,1.2c.5.3,1.1.4,1.6.4s1.1-.2,1.6-.4c.5-.3.9-.7,1.2-1.2.3-.5.4-1.1.4-1.9s-.2-1.4-.4-1.9h0Z"/>
  </g>
  <g>
    <path class="st1" d="M188.3,226.5c.5.7.9,1.5.9,2.5s-.2,1.6-.6,2.2-1,1.1-1.8,1.5-1.7.5-2.7.5h-6.6v-15.3h6.3c1.1,0,1.9.2,2.7.5.8.4,1.3.8,1.8,1.4.4.6.6,1.3.6,2s-.3,1.7-.7,2.3c-.4.6-1.1,1.1-1.9,1.2.9.2,1.6.6,2.1,1.3h0ZM180.6,224.2h2.8c.7,0,1.3-.2,1.7-.5.4-.4.6-.8.6-1.4s-.2-1.1-.6-1.4c-.4-.4-1-.5-1.7-.5h-2.8v3.9h0ZM185.4,230.1c.4-.4.6-.9.6-1.5s-.2-1.1-.7-1.6c-.4-.4-1.1-.5-1.8-.5h-3v4.1h3.1c.8,0,1.3-.2,1.8-.5h0Z"/>
    <path class="st1" d="M194.6,216.9v16.2h-3.1v-16.2h3.1Z"/>
    <path class="st1" d="M209.2,221v12.2h-3.1v-1.6c-.4.5-.9,1-1.6,1.2-.6.3-1.3.4-2.1.4s-1.8-.2-2.5-.6c-.7-.4-1.3-1-1.8-1.8s-.6-1.8-.6-2.8v-7.1h3.1v6.7c0,1,.3,1.7.7,2.2.5.5,1.1.8,1.9.8s1.5-.3,2-.8c.4-.5.7-1.2.7-2.2v-6.7h3.2,0Z"/>
    <path class="st1" d="M223.3,227.9h-8.8c0,.9.4,1.6.9,2.1.5.5,1.2.8,2,.8,1.1,0,1.9-.5,2.5-1.5h3.3c-.4,1.1-1.1,2.1-2,2.9-1,.8-2.2,1.1-3.7,1.1s-2.2-.3-3.2-.8c-1-.5-1.7-1.2-2.2-2.2s-.8-2-.8-3.3.3-2.4.8-3.3c.5-1,1.2-1.7,2.1-2.2,1-.5,2-.8,3.2-.8s2.2.3,3.1.8c.9.5,1.7,1.2,2.1,2.1.5.9.8,1.9.8,3.2s0,.9,0,1.2h0ZM220.3,225.9c0-.8-.3-1.4-.9-1.9-.5-.4-1.2-.7-2-.7s-1.4.3-1.9.7-.9,1.1-1,1.9h5.8Z"/>
    <path class="st1" d="M230.3,221.4c.7-.4,1.5-.5,2.4-.5s2,.3,2.8.8c.9.5,1.5,1.2,2,2.2.5,1,.7,2,.7,3.2s-.3,2.4-.7,3.3c-.5,1-1.1,1.7-2,2.2s-1.8.8-2.8.8-1.7-.2-2.4-.5-1.2-.8-1.7-1.4v7.5h-3.1v-17.9h3.1v1.8c.4-.5,1-1.1,1.7-1.4h0ZM234.6,225.1c-.3-.5-.7-1-1.2-1.2-.5-.3-1.1-.4-1.6-.4s-1.1.2-1.6.4c-.5.3-.9.7-1.2,1.2-.3.5-.4,1.1-.4,1.9s.2,1.4.4,1.9c.3.5.7,1,1.2,1.2.5.3,1.1.4,1.6.4s1.1-.2,1.6-.4c.5-.3.9-.7,1.2-1.2.3-.5.4-1.2.4-1.9s-.2-1.4-.4-1.9Z"/>
    <path class="st1" d="M245,221.4c.6-.4,1.4-.5,2.2-.5v3.2h-.8c-1,0-1.7.3-2.2.7s-.7,1.2-.7,2.4v6h-3.1v-12.2h3.1v1.8c.4-.6.9-1.1,1.6-1.5h0Z"/>
    <path class="st1" d="M249.5,219c-.4-.4-.5-.8-.5-1.3s.2-1,.5-1.3.8-.5,1.3-.5,1,.2,1.3.5c.4.4.5.8.5,1.3s-.2,1-.5,1.3-.8.5-1.3.5-1-.2-1.3-.5ZM252.4,221v12.2h-3.1v-12.2h3.1Z"/>
    <path class="st1" d="M265.6,222.2c.9.9,1.3,2.2,1.3,3.9v7.1h-3.1v-6.7c0-1-.3-1.7-.7-2.2-.5-.5-1.1-.8-1.9-.8s-1.5.3-2,.8c-.5.5-.7,1.2-.7,2.2v6.7h-3.1v-12.2h3.1v1.5c.4-.5,1-1,1.6-1.2.6-.3,1.3-.4,2.1-.4,1.4,0,2.6.4,3.5,1.4h0Z"/>
    <path class="st1" d="M273.4,223.5v5.9c0,.4,0,.7.3.9.2.2.5.3,1,.3h1.4v2.6h-1.9c-2.6,0-3.9-1.2-3.9-3.8v-5.9h-1.4v-2.5h1.4v-3h3.1v3h2.7v2.5h-2.7,0Z"/>
    <path class="st1" d="M280.3,232.7c-.8-.4-1.4-.9-1.8-1.5s-.7-1.3-.8-2h3.1c0,.4.3.9.7,1.1s.9.4,1.5.4,1.1,0,1.4-.4.5-.5.5-.9-.2-.7-.6-.9-1.1-.4-1.9-.6-1.7-.4-2.2-.7c-.6-.3-1.1-.6-1.5-1.1s-.6-1.1-.6-1.9.2-1.3.6-1.8c.4-.5,1-1,1.7-1.3s1.6-.5,2.5-.5c1.4,0,2.6.4,3.5,1.1s1.3,1.7,1.4,2.9h-3c0-.4-.3-.9-.6-1.1s-.9-.4-1.4-.4-1,0-1.3.3c-.3.2-.4.5-.4.9s.2.7.6,1c.4.2,1.1.4,1.9.6s1.6.4,2.2.7,1.1.6,1.5,1.1c.4.5.6,1.1.6,1.9s-.2,1.3-.6,1.9-1,1-1.7,1.3-1.6.4-2.5.4-1.9-.2-2.6-.5h0Z"/>
    <path class="st1" d="M301,223.5h-2.1v9.6h-3.1v-9.6h-1.4v-2.5h1.4v-.6c0-1.5.4-2.6,1.3-3.3s2.1-1.1,3.9-1v2.5c-.7,0-1.2,0-1.6.4-.3.3-.4.7-.4,1.4v.5h2.1v2.5h0Z"/>
    <path class="st1" d="M305.2,232.5c-1-.5-1.7-1.2-2.2-2.2s-.8-2-.8-3.3.3-2.4.8-3.3,1.3-1.7,2.3-2.2,2-.8,3.2-.8,2.2.3,3.2.8c1,.5,1.7,1.2,2.3,2.2s.8,2,.8,3.3-.3,2.4-.9,3.3-1.3,1.7-2.3,2.2-2,.8-3.2.8-2.2-.3-3.2-.8h0ZM310,230.2c.5-.3.9-.7,1.1-1.2s.4-1.2.4-1.9c0-1.1-.3-2-.9-2.6s-1.3-1-2.2-1-1.6.4-2.2,1c-.6.6-.9,1.5-.9,2.6s.3,2,.9,2.6,1.3,1,2.2,1,1.1-.2,1.6-.4h0Z"/>
    <path class="st1" d="M321.6,221.4c.6-.4,1.4-.5,2.2-.5v3.2h-.8c-1,0-1.7.3-2.2.7s-.7,1.2-.7,2.4v6h-3.1v-12.2h3.1v1.8c.4-.6.9-1.1,1.6-1.5h0Z"/>
    <path class="st1" d="M198.1,259c-.9-.4-1.5-.9-2-1.6s-.8-1.5-.8-2.5h3.3c0,.6.3,1.1.7,1.5.4.4,1,.5,1.7.5s1.3-.2,1.7-.5c.4-.4.6-.8.6-1.3s-.2-.8-.4-1.1c-.3-.3-.6-.5-1.1-.7-.4-.2-1-.4-1.8-.5-1-.3-1.8-.6-2.5-.9s-1.1-.7-1.6-1.3-.7-1.3-.7-2.3.3-1.7.7-2.4c.4-.7,1.1-1.2,1.9-1.6.8-.4,1.8-.5,2.8-.5,1.6,0,2.9.4,3.9,1.1s1.5,1.8,1.7,3.2h-3.4c0-.5-.3-1-.7-1.3s-1-.5-1.7-.5-1.1.2-1.4.4c-.4.4-.5.8-.5,1.3s.2.8.4,1.1c.3.3.6.5,1,.7.4.2,1,.4,1.7.6,1,.3,1.8.6,2.5.9s1.1.7,1.7,1.3.7,1.3.7,2.3-.2,1.6-.6,2.3c-.4.7-1.1,1.2-1.8,1.7-.8.4-1.8.6-2.9.6s-2-.2-2.9-.5h0Z"/>
    <path class="st1" d="M220.5,247.3v12.2h-3.1v-1.6c-.4.5-.9,1-1.6,1.2-.6.3-1.3.4-2.1.4s-1.8-.2-2.5-.6c-.7-.4-1.3-1-1.8-1.8s-.6-1.8-.6-2.8v-7.1h3.1v6.7c0,1,.3,1.7.7,2.2.5.5,1.1.8,1.9.8s1.5-.3,2-.8c.4-.5.7-1.2.7-2.2v-6.7h3.2,0Z"/>
    <path class="st1" d="M225.4,259c-.8-.4-1.4-.9-1.8-1.5s-.7-1.3-.8-2h3.1c0,.4.3.9.7,1.1s.9.4,1.5.4,1.1,0,1.4-.4.5-.5.5-.9-.2-.7-.6-.9-1.1-.4-1.9-.6-1.7-.4-2.2-.7c-.6-.3-1.1-.6-1.5-1.1s-.6-1.1-.6-1.9.2-1.3.6-1.8c.4-.5,1-1,1.7-1.3s1.6-.5,2.5-.5c1.4,0,2.6.4,3.5,1.1.9.7,1.3,1.7,1.4,2.9h-3c0-.4-.3-.9-.6-1.1-.4-.3-.9-.4-1.4-.4s-1,0-1.3.3c-.3.2-.4.5-.4.9s.2.7.6,1c.4.2,1.1.4,1.9.6s1.6.4,2.2.7,1.1.6,1.5,1.1c.4.5.6,1.1.6,1.9s-.2,1.3-.6,1.9c-.4.5-1,1-1.7,1.3s-1.6.4-2.5.4-1.8-.2-2.6-.5h0Z"/>
    <path class="st1" d="M239,249.7v5.9c0,.4,0,.7.3.9.2.2.5.3,1,.3h1.4v2.6h-1.9c-2.6,0-3.9-1.2-3.9-3.8v-5.9h-1.4v-2.5h1.4v-3h3.1v3h2.7v2.5h-2.7,0Z"/>
    <path class="st1" d="M243.9,250c.5-1,1.1-1.7,2-2.2s1.8-.8,2.8-.8,1.7.2,2.4.5c.7.4,1.2.8,1.7,1.4v-1.8h3.1v12.2h-3.1v-1.8c-.4.5-1,1.1-1.7,1.4s-1.5.5-2.4.5-1.9-.3-2.8-.8-1.5-1.2-2-2.2c-.5-1-.7-2-.7-3.3s.3-2.3.7-3.2h0ZM252.2,251.4c-.3-.5-.7-1-1.2-1.2s-1.1-.4-1.6-.4-1.1.2-1.6.4c-.4.3-.9.7-1.1,1.2s-.4,1.1-.4,1.9.2,1.4.4,1.9.7,1,1.2,1.2,1.1.4,1.6.4,1.1-.2,1.6-.4c.5-.3.9-.7,1.2-1.2.3-.5.4-1.1.4-1.9s-.2-1.4-.4-1.9h0Z"/>
    <path class="st1" d="M259,245.3c-.4-.4-.5-.8-.5-1.3s.2-1,.5-1.3.8-.5,1.3-.5,1,.2,1.3.5.5.8.5,1.3-.2,1-.5,1.3-.8.5-1.3.5-1-.2-1.3-.5ZM261.8,247.3v12.2h-3.1v-12.2h3.1Z"/>
    <path class="st1" d="M275.1,248.4c.9.9,1.3,2.2,1.3,3.9v7.1h-3.1v-6.7c0-1-.3-1.7-.7-2.2-.5-.5-1.1-.8-1.9-.8s-1.5.3-2,.8c-.5.5-.7,1.2-.7,2.2v6.7h-3.1v-12.2h3.1v1.5c.4-.5,1-1,1.6-1.2.6-.3,1.3-.4,2.1-.4,1.4,0,2.6.4,3.5,1.4h0Z"/>
    <path class="st1" d="M290.5,254.2h-8.8c0,.9.4,1.6.9,2.1s1.2.8,2,.8c1.1,0,1.9-.5,2.5-1.5h3.3c-.4,1.1-1.1,2.1-2,2.9-1,.8-2.2,1.1-3.7,1.1s-2.2-.3-3.2-.8-1.7-1.2-2.2-2.2-.8-2-.8-3.3.3-2.4.8-3.3c.5-1,1.2-1.7,2.1-2.2,1-.5,2-.8,3.2-.8s2.2.3,3.1.8,1.6,1.2,2.1,2.1.8,1.9.8,3.2v1.2h0ZM287.4,252.2c0-.8-.3-1.4-.9-1.9-.5-.4-1.2-.7-2-.7s-1.4.3-1.9.7-.9,1.1-1,1.9h5.8Z"/>
    <path class="st1" d="M292.7,250c.5-1,1.1-1.7,2-2.2s1.8-.8,2.8-.8,1.6.2,2.3.5c.7.4,1.3.8,1.8,1.4v-5.8h3.1v16.2h-3.1v-1.8c-.4.6-.9,1.1-1.6,1.4s-1.5.5-2.4.5-1.9-.3-2.8-.8-1.5-1.2-2-2.2c-.5-1-.7-2-.7-3.3s.3-2.3.7-3.2h0ZM301.1,251.4c-.3-.5-.7-1-1.1-1.2-.5-.3-1.1-.4-1.6-.4s-1.1.2-1.6.4c-.4.3-.9.7-1.1,1.2s-.4,1.1-.4,1.9.2,1.4.4,1.9.7,1,1.2,1.2,1.1.4,1.6.4,1.1-.2,1.6-.4c.5-.3.9-.7,1.1-1.2s.4-1.1.4-1.9-.2-1.4-.4-1.9h0Z"/>
    <path class="st1" d="M224.4,274.9c-.4-.6-.9-1.1-1.4-1.5-.6-.4-1.3-.5-2.2-.5s-1.7.2-2.5.6c-.7.4-1.2,1-1.7,1.8-.4.8-.6,1.7-.6,2.6s.2,1.9.6,2.6c.4.8,1,1.3,1.7,1.8s1.6.6,2.5.6,2.1-.4,2.9-1c.7-.6,1.2-1.5,1.5-2.6h-5.3v-2.4h8.3v2.7c-.2,1.1-.6,2-1.3,3-.7.9-1.6,1.7-2.6,2.2s-2.3.8-3.6.8-2.8-.4-4-1-2.1-1.6-2.8-2.8-1.1-2.5-1.1-4,.4-2.9,1.1-4,1.6-2.1,2.8-2.8c1.2-.7,2.5-1,3.9-1s3.2.4,4.5,1.2c1.3.9,2.2,2,2.6,3.5h-3.5l.2.2h0Z"/>
    <path class="st1" d="M235.2,273.9c.6-.4,1.4-.5,2.2-.5v3.2h-.8c-1,0-1.7.3-2.2.7s-.7,1.2-.7,2.4v6h-3.1v-12.2h3.1v1.8c.4-.6.9-1.1,1.6-1.5h0Z"/>
    <path class="st1" d="M241.6,285c-1-.5-1.7-1.2-2.2-2.2s-.8-2-.8-3.3.3-2.4.8-3.3,1.3-1.7,2.3-2.2,2-.8,3.2-.8,2.2.3,3.2.8,1.7,1.2,2.3,2.2.8,2,.8,3.3-.3,2.4-.9,3.3c-.5,1-1.3,1.7-2.3,2.2s-2,.8-3.2.8-2.2-.3-3.2-.8h0ZM246.4,282.7c.5-.3.9-.7,1.1-1.2s.4-1.2.4-1.9c0-1.1-.3-2-.9-2.6s-1.3-1-2.2-1-1.6.4-2.2,1-.9,1.5-.9,2.6.3,2,.9,2.6,1.3,1,2.2,1,1.1-.2,1.6-.4h0Z"/>
    <path class="st1" d="M270.2,273.5l-3.5,12.2h-3.3l-2.2-8.5-2.2,8.5h-3.3l-3.6-12.2h3.2l2.2,9.3,2.4-9.3h3.2l2.3,9.2,2.2-9.2h2.9-.2Z"/>
    <path class="st1" d="M275.4,276v5.9c0,.4,0,.7.3.9.2.2.5.3,1,.3h1.4v2.6h-1.9c-2.6,0-3.9-1.2-3.9-3.8v-5.9h-1.5v-2.5h1.5v-3h3.1v3h2.7v2.5h-2.7,0Z"/>
    <path class="st1" d="M289.6,273.9c.7.4,1.3,1,1.7,1.8.4.8.6,1.8.6,2.8v7.1h-3.1v-6.7c0-1-.3-1.7-.7-2.2s-1.1-.8-1.9-.8-1.5.3-2,.8c-.5.5-.7,1.2-.7,2.2v6.7h-3.1v-16.2h3.1v5.6c.4-.5.9-1,1.6-1.2s1.4-.4,2.2-.4,1.8.2,2.5.6h0Z"/>
  </g>
  <g>
    <path class="st1" d="M394.9,231.9c1.2.6,2.2,1.5,2.8,2.7s1,2.5,1,4-.4,2.9-1,4-1.6,2-2.8,2.6c-1.2.6-2.6,1-4.2,1h-5.3v-15.3h5.3c1.6,0,3,.4,4.2,1h0ZM394.2,242.3c.9-.9,1.3-2.1,1.3-3.7s-.4-2.8-1.3-3.8-2.1-1.3-3.7-1.3h-2.2v10.1h2.2c1.6,0,2.8-.4,3.7-1.3h0Z"/>
    <path class="st1" d="M412.2,241.1h-8.8c0,.9.4,1.6,1,2.1.5.5,1.2.8,2,.8,1.1,0,1.9-.5,2.5-1.5h3.3c-.4,1.1-1.1,2.1-2,2.9-1,.8-2.2,1.1-3.7,1.1s-2.2-.3-3.2-.8-1.7-1.2-2.2-2.2-.8-2-.8-3.3.3-2.4.8-3.3c.5-1,1.2-1.7,2.1-2.2,1-.5,2-.8,3.2-.8s2.2.3,3.1.8c.9.5,1.7,1.2,2.1,2.1.5.9.8,1.9.8,3.2s0,.9,0,1.2h0ZM409.1,239c0-.8-.3-1.4-.9-1.9-.5-.4-1.2-.7-2-.7s-1.4.3-1.9.7-.9,1.1-1,1.9h5.8Z"/>
    <path class="st1" d="M416.5,245.9c-.8-.4-1.4-.9-1.8-1.5s-.7-1.3-.8-2h3.1c0,.4.3.9.7,1.1s.9.4,1.5.4,1.1,0,1.4-.4.5-.5.5-.9-.2-.7-.6-.9-1.1-.4-1.9-.6-1.7-.4-2.2-.7c-.6-.3-1.1-.6-1.5-1.1s-.6-1.1-.6-1.9.2-1.3.6-1.8c.4-.5,1-1,1.7-1.3s1.6-.5,2.5-.5c1.4,0,2.6.4,3.5,1.1s1.3,1.7,1.4,2.9h-2.9c0-.4-.3-.9-.6-1.1-.4-.3-.9-.4-1.4-.4s-1,0-1.3.3c-.3.2-.4.5-.4.9s.2.7.6,1c.4.2,1.1.4,1.9.6s1.6.4,2.2.7,1.1.6,1.5,1.1c.4.5.6,1.1.6,1.9s-.2,1.3-.6,1.9c-.4.5-1,1-1.7,1.3s-1.6.4-2.5.4-1.8-.2-2.6-.5h-.2Z"/>
    <path class="st1" d="M426.6,232.1c-.4-.4-.5-.8-.5-1.3s.2-1,.5-1.3.8-.5,1.3-.5,1,.2,1.3.5c.4.4.5.8.5,1.3s-.2,1-.5,1.3-.8.5-1.3.5-1-.2-1.3-.5ZM429.5,234.1v12.2h-3.1v-12.2h3.1Z"/>
    <path class="st1" d="M439.7,234.4c.7.4,1.2.8,1.7,1.4v-1.8h3.1v12.3c0,1.1-.3,2.1-.7,3s-1.1,1.6-2,2.1-2,.8-3.3.8-3.2-.4-4.2-1.2c-1.1-.8-1.8-1.9-1.8-3.3h3.1c.2.5.5,1,1.1,1.3s1.1.5,1.9.5,1.6-.3,2.2-.8.9-1.3.9-2.5v-1.8c-.4.5-1,1.1-1.7,1.4-.7.4-1.5.5-2.4.5s-1.9-.3-2.8-.8-1.5-1.2-2-2.2c-.5-1-.7-2-.7-3.3s.3-2.3.7-3.2c.5-1,1.1-1.7,2-2.2s1.8-.8,2.8-.8,1.7.2,2.4.5h0ZM440.8,238.3c-.3-.5-.7-1-1.2-1.2-.5-.3-1.1-.4-1.6-.4s-1.1.2-1.6.4c-.4.3-.9.7-1.1,1.2s-.4,1.1-.4,1.9.2,1.4.4,1.9.7,1,1.2,1.2,1.1.4,1.6.4,1.1-.2,1.6-.4c.5-.3.9-.7,1.2-1.2s.4-1.1.4-1.9-.2-1.4-.4-1.9h0Z"/>
    <path class="st1" d="M457.6,235.3c.9.9,1.3,2.2,1.3,3.9v7.1h-3.1v-6.7c0-1-.3-1.7-.7-2.2-.5-.5-1.1-.8-1.9-.8s-1.5.3-2,.8-.7,1.2-.7,2.2v6.7h-3.1v-12.2h3.1v1.5c.4-.5,1-1,1.6-1.2.6-.3,1.3-.4,2.1-.4,1.5,0,2.6.4,3.5,1.4h0Z"/>
    <path class="st1" d="M386.1,257.2v2.5h-4v12.8h-3.1v-12.8h-4.1v-2.5h11.2Z"/>
    <path class="st1" d="M397.6,260.7c.7.4,1.3,1,1.7,1.8s.6,1.8.6,2.8v7.1h-3.1v-6.7c0-1-.3-1.7-.7-2.2-.5-.5-1.1-.8-1.9-.8s-1.5.3-2,.8c-.5.5-.7,1.2-.7,2.2v6.7h-3.1v-16.2h3.1v5.6c.4-.5.9-1,1.6-1.2s1.4-.4,2.2-.4,1.8.2,2.5.6h0Z"/>
    <path class="st1" d="M403,258.4c-.4-.4-.5-.8-.5-1.3s.2-1,.5-1.3.8-.5,1.3-.5,1,.2,1.3.5.5.8.5,1.3-.2,1-.5,1.3-.8.5-1.3.5-1-.2-1.3-.5ZM405.8,260.4v12.2h-3.1v-12.2h3.1Z"/>
    <path class="st1" d="M419.1,261.5c.9.9,1.3,2.2,1.3,3.9v7.1h-3.1v-6.7c0-1-.3-1.7-.7-2.2-.5-.5-1.1-.8-1.9-.8s-1.5.3-2,.8c-.5.5-.7,1.2-.7,2.2v6.7h-3.1v-12.2h3.1v1.5c.4-.5,1-1,1.6-1.2.6-.3,1.3-.4,2.1-.4,1.4,0,2.6.4,3.5,1.4h0Z"/>
    <path class="st1" d="M430.5,272.5l-4.1-5.2v5.2h-3.1v-16.2h3.1v9.2l4-5.2h3.9l-5.3,6.1,5.4,6h-4,0Z"/>
    <path class="st1" d="M436.2,258.4c-.4-.4-.5-.8-.5-1.3s.2-1,.5-1.3.8-.5,1.3-.5,1,.2,1.3.5.5.8.5,1.3-.2,1-.5,1.3-.8.5-1.3.5-1-.2-1.3-.5h0ZM439.1,260.4v12.2h-3.1v-12.2h3.1Z"/>
    <path class="st1" d="M452.3,261.5c.9.9,1.3,2.2,1.3,3.9v7.1h-3.1v-6.7c0-1-.3-1.7-.7-2.2s-1.1-.8-1.9-.8-1.5.3-2,.8-.7,1.2-.7,2.2v6.7h-3.1v-12.2h3.1v1.5c.4-.5,1-1,1.6-1.2s1.3-.4,2.1-.4c1.4,0,2.6.4,3.5,1.4h0Z"/>
    <path class="st1" d="M463.7,260.7c.7.4,1.2.8,1.6,1.4v-1.8h3.1v12.3c0,1.1-.3,2.1-.7,3s-1.1,1.6-2,2.1-2,.8-3.3.8-3.2-.4-4.2-1.2c-1.1-.8-1.8-1.9-1.8-3.3h3.1c.2.5.5,1,1.1,1.3s1.1.5,1.9.5,1.6-.3,2.2-.8.9-1.3.9-2.5v-1.8c-.4.5-1,1.1-1.7,1.4-.7.4-1.5.5-2.4.5s-1.9-.3-2.8-.8-1.5-1.2-2-2.2-.7-2-.7-3.3.3-2.3.7-3.2c.5-1,1.1-1.7,2-2.2s1.8-.8,2.8-.8,1.7.2,2.4.5h0ZM464.9,264.5c-.3-.5-.7-1-1.1-1.2-.5-.3-1.1-.4-1.6-.4s-1.1.2-1.6.4-.9.7-1.1,1.2-.4,1.1-.4,1.9.2,1.4.4,1.9.7,1,1.1,1.2c.5.3,1.1.4,1.6.4s1.1-.2,1.6-.4c.5-.3.9-.7,1.1-1.2s.4-1.1.4-1.9-.2-1.4-.4-1.9Z"/>
  </g>
</svg>