<?xml version="1.0" encoding="UTF-8"?>
<svg id="Layer_1" xmlns="http://www.w3.org/2000/svg" version="1.1" viewBox="0 0 600 600">
  <!-- Generator: Adobe Illustrator 29.0.1, SVG Export Plug-In . SVG Version: 2.1.0 Build 192)  -->
  <defs>
    <style>
      .st0 {
        fill: #ebb44d;
      }

      .st1 {
        fill: #122213;
      }

      .st2 {
        fill: #a0d07a;
      }

      .st3 {
        fill: #92d7eb;
      }
    </style>
  </defs>
  <g>
    <path class="st2" d="M417.7,275.6c0,77.3-42.9,144.7-106.1,179.7,23.5,10.1,49.4,15.6,76.6,15.6,107.7,0,195.4-87.6,195.4-195.4s-110.4-192.3-195.4-195.4c-32.1-1.2-58.8,7.7-76.6,15.6,63.2,35.1,106.1,102.5,106.1,179.7v.2Z"/>
    <path class="st0" d="M182.8,275.6c0-77.3,42.9-144.7,106.1-179.7-23.5-10.1-49.4-15.6-76.6-15.6-107.7,0-195.4,87.6-195.4,195.4s110.4,192.3,195.4,195.4c32.1,1.2,58.8-7.7,76.6-15.6-63.2-35.1-106.1-102.5-106.1-179.7v-.2Z"/>
    <path class="st3" d="M407.7,275.6c0-76.1-43.8-142.2-107.5-174.5-63.7,32.2-107.5,98.3-107.5,174.5s43.8,142.2,107.5,174.5c63.7-32.2,107.5-98.3,107.5-174.5Z"/>
  </g>
  <g>
    <path class="st1" d="M71,250.7v2.8h-7.3v4.5h5.6v2.8h-5.6v7.4h-3.5v-17.5h10.8,0Z"/>
    <path class="st1" d="M86.5,254.3v13.9h-3.5v-1.8c-.4.6-1,1.1-1.8,1.4-.7.3-1.5.5-2.4.5s-2-.2-2.9-.7c-.8-.5-1.5-1.1-2-2s-.7-2-.7-3.2v-8.1h3.5v7.6c0,1.1.3,1.9.8,2.5.6.6,1.3.9,2.2.9s1.7-.3,2.3-.9c.5-.6.8-1.4.8-2.5v-7.6h3.7Z"/>
    <path class="st1" d="M94.1,257.1v6.7c0,.5,0,.8.3,1,.2.2.6.3,1.1.3h1.6v3h-2.2c-3,0-4.4-1.4-4.4-4.3v-6.7h-1.6v-2.9h1.6v-3.4h3.5v3.4h3.1v2.9h-3.1,0Z"/>
    <path class="st1" d="M112.8,254.3v13.9h-3.5v-1.8c-.4.6-1,1.1-1.8,1.4-.7.3-1.5.5-2.4.5s-2-.2-2.9-.7c-.8-.5-1.5-1.1-2-2s-.7-2-.7-3.2v-8.1h3.5v7.6c0,1.1.3,1.9.8,2.5.6.6,1.3.9,2.2.9s1.7-.3,2.3-.9c.5-.6.8-1.4.8-2.5v-7.6h3.7Z"/>
    <path class="st1" d="M121.5,254.7c.7-.4,1.6-.6,2.5-.6v3.7h-.9c-1.1,0-1.9.3-2.5.8s-.8,1.4-.8,2.7v6.9h-3.5v-13.9h3.5v2.1c.4-.7,1-1.3,1.8-1.7h0Z"/>
    <path class="st1" d="M139.1,262.2h-10.1c0,1,.4,1.8,1,2.4s1.4.9,2.3.9c1.3,0,2.2-.6,2.8-1.7h3.8c-.4,1.3-1.2,2.4-2.3,3.3s-2.5,1.3-4.2,1.3-2.5-.3-3.6-.9c-1.1-.6-1.9-1.4-2.5-2.5s-.9-2.3-.9-3.8.3-2.7.9-3.8c.6-1.1,1.4-1.9,2.4-2.5,1.1-.6,2.3-.9,3.6-.9s2.5.3,3.5.9c1,.6,1.9,1.4,2.4,2.4.6,1,.9,2.2.9,3.6s0,1-.1,1.4h.1ZM135.6,259.9c0-.9-.3-1.6-1-2.2-.6-.5-1.4-.8-2.3-.8s-1.6.3-2.2.8-1,1.3-1.1,2.2h6.6Z"/>
    <path class="st1" d="M58.1,280.7v2.8h-4.6v14.6h-3.5v-14.6h-4.7v-2.8h12.8Z"/>
    <path class="st1" d="M71.3,284.7c.8.5,1.5,1.1,1.9,2s.7,2,.7,3.2v8.1h-3.5v-7.6c0-1.1-.3-1.9-.8-2.5-.6-.6-1.3-.9-2.2-.9s-1.7.3-2.3.9c-.6.6-.8,1.4-.8,2.5v7.6h-3.5v-18.5h3.5v6.4c.4-.6,1-1.1,1.8-1.4s1.6-.5,2.5-.5,2,.2,2.8.7h0Z"/>
    <path class="st1" d="M77.4,282c-.4-.4-.6-.9-.6-1.5s.2-1.1.6-1.5.9-.6,1.5-.6,1.1.2,1.5.6.6.9.6,1.5-.2,1.1-.6,1.5-.9.6-1.5.6-1.1-.2-1.5-.6ZM80.7,284.3v13.9h-3.5v-13.9h3.5Z"/>
    <path class="st1" d="M95.8,285.6c1,1,1.5,2.5,1.5,4.4v8.1h-3.5v-7.6c0-1.1-.3-1.9-.8-2.5-.6-.6-1.3-.9-2.2-.9s-1.7.3-2.3.9c-.6.6-.8,1.4-.8,2.5v7.6h-3.5v-13.9h3.5v1.7c.5-.6,1.1-1.1,1.8-1.4.7-.3,1.5-.5,2.4-.5,1.6,0,3,.5,4,1.6h0Z"/>
    <path class="st1" d="M108.9,298.1l-4.7-5.9v5.9h-3.5v-18.5h3.5v10.5l4.6-5.9h4.5l-6.1,7,6.1,6.9h-4.6.2Z"/>
    <path class="st1" d="M115.5,282c-.4-.4-.6-.9-.6-1.5s.2-1.1.6-1.5.9-.6,1.5-.6,1.1.2,1.5.6.6.9.6,1.5-.2,1.1-.6,1.5-.9.6-1.5.6-1.1-.2-1.5-.6ZM118.8,284.3v13.9h-3.5v-13.9h3.5Z"/>
    <path class="st1" d="M133.9,285.6c1,1,1.5,2.5,1.5,4.4v8.1h-3.5v-7.6c0-1.1-.3-1.9-.8-2.5-.6-.6-1.3-.9-2.2-.9s-1.7.3-2.3.9c-.6.6-.8,1.4-.8,2.5v7.6h-3.5v-13.9h3.5v1.7c.5-.6,1.1-1.1,1.8-1.4.7-.3,1.5-.5,2.4-.5,1.6,0,3,.5,4,1.6h0Z"/>
    <path class="st1" d="M146.9,284.6c.8.4,1.4.9,1.9,1.6v-2h3.5v14c0,1.3-.3,2.4-.8,3.4s-1.3,1.8-2.3,2.4-2.3.9-3.8.9-3.6-.5-4.8-1.4c-1.3-.9-2-2.2-2.1-3.8h3.5c.2.6.6,1.1,1.2,1.5s1.3.6,2.2.6,1.8-.3,2.5-.9,1-1.5,1-2.8v-2.1c-.5.6-1.1,1.2-1.9,1.6-.8.4-1.7.6-2.7.6s-2.2-.3-3.2-.9-1.7-1.4-2.3-2.5-.8-2.3-.8-3.8.3-2.6.8-3.7c.6-1.1,1.3-1.9,2.3-2.5s2-.9,3.2-.9,1.9.2,2.7.6h0ZM148.2,289c-.3-.6-.8-1.1-1.4-1.4-.6-.3-1.2-.5-1.8-.5s-1.2.2-1.8.5c-.5.3-1,.8-1.3,1.4s-.5,1.3-.5,2.2.2,1.6.5,2.2.8,1.1,1.4,1.4c.6.3,1.2.5,1.8.5s1.3-.2,1.8-.5c.6-.3,1-.8,1.4-1.4.3-.6.5-1.3.5-2.2s-.2-1.6-.5-2.2h0Z"/>
  </g>
  <g>
    <path class="st1" d="M226.6,245.6c.6.8,1,1.7,1,2.8s-.2,1.8-.7,2.5-1.1,1.3-2,1.7-1.9.6-3.1.6h-7.5v-17.5h7.2c1.2,0,2.2.2,3.1.6.9.4,1.5.9,2,1.6.4.7.7,1.5.7,2.3s-.3,1.9-.8,2.6c-.5.7-1.3,1.2-2.2,1.4,1,.2,1.8.7,2.4,1.5h0ZM217.8,242.9h3.2c.8,0,1.5-.2,1.9-.6.4-.4.7-.9.7-1.6s-.2-1.2-.7-1.6c-.5-.4-1.1-.6-1.9-.6h-3.2v4.4h0ZM223.3,249.7c.5-.4.7-1,.7-1.7s-.2-1.3-.8-1.8c-.5-.4-1.2-.6-2-.6h-3.4v4.7h3.5c.9,0,1.5-.2,2-.6h0Z"/>
    <path class="st1" d="M233.8,234.6v18.5h-3.5v-18.5h3.5Z"/>
    <path class="st1" d="M250.4,239.3v13.9h-3.5v-1.8c-.4.6-1,1.1-1.8,1.4-.7.3-1.5.5-2.4.5s-2-.2-2.9-.7c-.8-.5-1.5-1.1-2-2s-.7-2-.7-3.2v-8.1h3.5v7.6c0,1.1.3,1.9.8,2.5.6.6,1.3.9,2.2.9s1.7-.3,2.3-.9c.5-.6.8-1.4.8-2.5v-7.6h3.7Z"/>
    <path class="st1" d="M266.6,247.2h-10.1c0,1,.4,1.8,1,2.4.6.6,1.4.9,2.3.9,1.3,0,2.2-.6,2.8-1.7h3.8c-.4,1.3-1.2,2.4-2.3,3.3-1.1.9-2.5,1.3-4.2,1.3s-2.5-.3-3.6-.9c-1.1-.6-1.9-1.4-2.5-2.5s-.9-2.3-.9-3.8.3-2.7.9-3.8c.6-1.1,1.4-1.9,2.4-2.5,1.1-.6,2.3-.9,3.6-.9s2.5.3,3.5.9c1,.6,1.9,1.4,2.4,2.4.6,1,.9,2.2.9,3.6s0,1-.1,1.4h.1ZM263.1,244.9c0-.9-.3-1.6-1-2.2-.6-.5-1.4-.8-2.3-.8s-1.6.3-2.2.8-1,1.3-1.1,2.2h6.6Z"/>
    <path class="st1" d="M274.6,239.7c.8-.4,1.7-.6,2.7-.6s2.3.3,3.2.9c1,.6,1.7,1.4,2.3,2.5.6,1.1.8,2.3.8,3.7s-.3,2.7-.8,3.8c-.6,1.1-1.3,1.9-2.3,2.5s-2,.9-3.2.9-1.9-.2-2.7-.6-1.4-.9-1.9-1.6v8.6h-3.5v-20.5h3.5v2c.4-.6,1.1-1.2,1.9-1.6h0ZM279.5,244c-.3-.6-.8-1.1-1.4-1.4-.6-.3-1.2-.5-1.8-.5s-1.2.2-1.8.5c-.6.3-1,.8-1.4,1.4-.3.6-.5,1.3-.5,2.2s.2,1.6.5,2.2c.3.6.8,1.1,1.4,1.4.6.3,1.2.5,1.8.5s1.3-.2,1.8-.5c.6-.3,1-.8,1.4-1.4.3-.6.5-1.4.5-2.2s-.2-1.6-.5-2.2Z"/>
    <path class="st1" d="M291.4,239.7c.7-.4,1.6-.6,2.5-.6v3.7h-.9c-1.1,0-1.9.3-2.5.8s-.8,1.4-.8,2.7v6.9h-3.5v-13.9h3.5v2.1c.4-.7,1-1.3,1.8-1.7h-.1Z"/>
    <path class="st1" d="M296.5,237c-.4-.4-.6-.9-.6-1.5s.2-1.1.6-1.5.9-.6,1.5-.6,1.1.2,1.5.6c.4.4.6.9.6,1.5s-.2,1.1-.6,1.5-.9.6-1.5.6-1.1-.2-1.5-.6ZM299.8,239.3v13.9h-3.5v-13.9h3.5Z"/>
    <path class="st1" d="M314.9,240.6c1,1,1.5,2.5,1.5,4.4v8.1h-3.5v-7.6c0-1.1-.3-1.9-.8-2.5-.6-.6-1.3-.9-2.2-.9s-1.7.3-2.3.9c-.6.6-.8,1.4-.8,2.5v7.6h-3.5v-13.9h3.5v1.7c.5-.6,1.1-1.1,1.8-1.4.7-.3,1.5-.5,2.4-.5,1.6,0,3,.5,4,1.6h-.1Z"/>
    <path class="st1" d="M323.8,242.1v6.7c0,.5.1.8.3,1,.2.2.6.3,1.1.3h1.6v3h-2.2c-3,0-4.4-1.4-4.4-4.3v-6.7h-1.6v-2.9h1.6v-3.4h3.5v3.4h3.1v2.9h-3.1.1Z"/>
    <path class="st1" d="M331.7,252.7c-.9-.4-1.6-1-2.1-1.7s-.8-1.5-.9-2.3h3.5c0,.5.3,1,.8,1.3s1,.5,1.7.5,1.2-.1,1.6-.4.6-.6.6-1-.2-.8-.7-1-1.2-.5-2.2-.7-1.9-.5-2.5-.8c-.7-.3-1.2-.7-1.7-1.2s-.7-1.3-.7-2.2.2-1.5.7-2.1c.4-.6,1.1-1.1,1.9-1.5s1.8-.6,2.9-.6c1.6,0,3,.4,4,1.2s1.5,1.9,1.6,3.3h-3.4c0-.5-.3-1-.7-1.3s-1-.5-1.6-.5-1.1.1-1.5.3c-.3.2-.5.6-.5,1s.2.8.7,1.1c.5.2,1.2.5,2.2.7s1.8.5,2.5.8,1.2.7,1.7,1.2c.5.6.7,1.3.7,2.2s-.2,1.5-.7,2.2-1.1,1.1-1.9,1.5-1.8.5-2.9.5-2.2-.2-3-.6h-.1Z"/>
    <path class="st1" d="M355.4,242.1h-2.4v11h-3.5v-11h-1.6v-2.9h1.6v-.7c0-1.7.5-3,1.5-3.8s2.4-1.2,4.4-1.1v2.9c-.8,0-1.4.1-1.8.4-.3.3-.5.8-.5,1.6v.6h2.4v2.9h-.1Z"/>
    <path class="st1" d="M360.2,252.4c-1.1-.6-1.9-1.4-2.5-2.5s-.9-2.3-.9-3.8.3-2.7.9-3.8,1.5-1.9,2.6-2.5,2.3-.9,3.6-.9,2.5.3,3.6.9c1.1.6,1.9,1.4,2.6,2.5s.9,2.3.9,3.8-.3,2.7-1,3.8-1.5,1.9-2.6,2.5-2.3.9-3.7.9-2.5-.3-3.6-.9h.1ZM365.6,249.8c.6-.3,1-.8,1.3-1.4s.5-1.4.5-2.2c0-1.3-.3-2.3-1-3s-1.5-1.1-2.5-1.1-1.8.4-2.5,1.1c-.7.7-1,1.7-1,3s.3,2.3,1,3,1.5,1.1,2.5,1.1,1.2-.2,1.8-.5h0Z"/>
    <path class="st1" d="M378.9,239.7c.7-.4,1.6-.6,2.5-.6v3.7h-.9c-1.1,0-1.9.3-2.5.8s-.8,1.4-.8,2.7v6.9h-3.5v-13.9h3.5v2.1c.5-.7,1-1.3,1.8-1.7h-.1Z"/>
    <path class="st1" d="M237.8,282.7c-1-.4-1.7-1-2.3-1.8s-.9-1.7-.9-2.8h3.8c0,.7.3,1.3.8,1.7.5.4,1.1.6,1.9.6s1.5-.2,1.9-.6c.5-.4.7-.9.7-1.5s-.2-.9-.5-1.3c-.3-.3-.7-.6-1.2-.8-.5-.2-1.1-.4-2-.6-1.1-.3-2.1-.7-2.8-1s-1.3-.8-1.8-1.5-.8-1.5-.8-2.6.3-1.9.8-2.7c.5-.8,1.2-1.4,2.2-1.8.9-.4,2-.6,3.2-.6,1.8,0,3.3.4,4.4,1.3s1.7,2.1,1.9,3.7h-3.9c0-.6-.3-1.1-.8-1.5s-1.1-.6-1.9-.6-1.2.2-1.6.5c-.4.4-.6.9-.6,1.5s.2.9.5,1.2c.3.3.7.6,1.1.8.5.2,1.1.4,1.9.7,1.1.3,2.1.7,2.8,1s1.3.8,1.9,1.5.8,1.5.8,2.6-.2,1.8-.7,2.6c-.5.8-1.2,1.4-2.1,1.9-.9.5-2,.7-3.3.7s-2.3-.2-3.3-.6h0Z"/>
    <path class="st1" d="M263.3,269.3v13.9h-3.5v-1.8c-.4.6-1,1.1-1.8,1.4-.7.3-1.5.5-2.4.5s-2-.2-2.9-.7c-.8-.5-1.5-1.1-2-2s-.7-2-.7-3.2v-8.1h3.5v7.6c0,1.1.3,1.9.8,2.5.6.6,1.3.9,2.2.9s1.7-.3,2.3-.9c.5-.6.8-1.4.8-2.5v-7.6h3.7Z"/>
    <path class="st1" d="M269,282.7c-.9-.4-1.6-1-2.1-1.7s-.8-1.5-.9-2.3h3.5c0,.5.3,1,.8,1.3s1,.5,1.7.5,1.2-.1,1.6-.4.6-.6.6-1-.2-.8-.7-1-1.2-.5-2.2-.7-1.9-.5-2.5-.8c-.7-.3-1.2-.7-1.7-1.2s-.7-1.3-.7-2.2.2-1.5.7-2.1c.4-.6,1.1-1.1,1.9-1.5s1.8-.6,2.9-.6c1.6,0,3,.4,4,1.2,1,.8,1.5,1.9,1.6,3.3h-3.4c0-.5-.3-1-.7-1.3-.4-.3-1-.5-1.6-.5s-1.1.1-1.5.3c-.3.2-.5.6-.5,1s.2.8.7,1.1c.5.2,1.2.5,2.2.7s1.8.5,2.5.8,1.2.7,1.7,1.2c.5.6.7,1.3.7,2.2s-.2,1.5-.7,2.2c-.4.6-1.1,1.1-1.9,1.5s-1.8.5-2.9.5-2.1-.2-3-.6h-.1Z"/>
    <path class="st1" d="M284.5,272.1v6.7c0,.5.1.8.3,1,.2.2.6.3,1.1.3h1.6v3h-2.2c-3,0-4.4-1.4-4.4-4.3v-6.7h-1.6v-2.9h1.6v-3.4h3.5v3.4h3.1v2.9h-3.1.1Z"/>
    <path class="st1" d="M290.1,272.4c.6-1.1,1.3-1.9,2.3-2.5s2-.9,3.2-.9,1.9.2,2.7.6c.8.4,1.4.9,1.9,1.6v-2h3.5v13.9h-3.5v-2c-.5.6-1.1,1.2-1.9,1.6s-1.7.6-2.7.6-2.2-.3-3.2-.9-1.7-1.4-2.3-2.5c-.6-1.1-.8-2.3-.8-3.8s.3-2.6.8-3.7h0ZM299.6,274c-.3-.6-.8-1.1-1.4-1.4s-1.2-.5-1.8-.5-1.2.2-1.8.5c-.5.3-1,.8-1.3,1.4s-.5,1.3-.5,2.2.2,1.6.5,2.2.8,1.1,1.4,1.4,1.2.5,1.8.5,1.3-.2,1.8-.5c.6-.3,1-.8,1.4-1.4.3-.6.5-1.3.5-2.2s-.2-1.6-.5-2.2h-.1Z"/>
    <path class="st1" d="M307.3,267c-.4-.4-.6-.9-.6-1.5s.2-1.1.6-1.5.9-.6,1.5-.6,1.1.2,1.5.6.6.9.6,1.5-.2,1.1-.6,1.5-.9.6-1.5.6-1.1-.2-1.5-.6ZM310.6,269.3v13.9h-3.5v-13.9h3.5Z"/>
    <path class="st1" d="M325.7,270.6c1,1,1.5,2.5,1.5,4.4v8.1h-3.5v-7.6c0-1.1-.3-1.9-.8-2.5-.6-.6-1.3-.9-2.2-.9s-1.7.3-2.3.9c-.6.6-.8,1.4-.8,2.5v7.6h-3.5v-13.9h3.5v1.7c.5-.6,1.1-1.1,1.8-1.4.7-.3,1.5-.5,2.4-.5,1.6,0,3,.5,4,1.6h-.1Z"/>
    <path class="st1" d="M343.3,277.2h-10.1c0,1,.4,1.8,1,2.4s1.4.9,2.3.9c1.3,0,2.2-.6,2.8-1.7h3.8c-.4,1.3-1.2,2.4-2.3,3.3-1.1.9-2.5,1.3-4.2,1.3s-2.5-.3-3.6-.9-1.9-1.4-2.5-2.5-.9-2.3-.9-3.8.3-2.7.9-3.8c.6-1.1,1.4-1.9,2.4-2.5,1.1-.6,2.3-.9,3.6-.9s2.5.3,3.5.9,1.8,1.4,2.4,2.4.9,2.2.9,3.6v1.4h0ZM339.8,274.9c0-.9-.3-1.6-1-2.2-.6-.5-1.4-.8-2.3-.8s-1.6.3-2.2.8-1,1.3-1.1,2.2h6.6Z"/>
    <path class="st1" d="M345.9,272.4c.6-1.1,1.3-1.9,2.3-2.5s2-.9,3.2-.9,1.8.2,2.6.6c.8.4,1.5.9,2,1.6v-6.6h3.5v18.5h-3.5v-2c-.4.7-1,1.2-1.8,1.6s-1.7.6-2.7.6-2.2-.3-3.2-.9-1.7-1.4-2.3-2.5c-.6-1.1-.8-2.3-.8-3.8s.3-2.6.8-3.7h-.1ZM355.5,274c-.3-.6-.8-1.1-1.3-1.4-.6-.3-1.2-.5-1.8-.5s-1.2.2-1.8.5c-.5.3-1,.8-1.3,1.4s-.5,1.3-.5,2.2.2,1.6.5,2.2.8,1.1,1.4,1.4,1.2.5,1.8.5,1.3-.2,1.8-.5c.6-.3,1-.8,1.3-1.4s.5-1.3.5-2.2-.2-1.6-.5-2.2h-.1Z"/>
    <path class="st1" d="M267.8,300.9c-.4-.7-1-1.3-1.6-1.7-.7-.4-1.5-.6-2.5-.6s-1.9.2-2.8.7c-.8.5-1.4,1.1-1.9,2-.4.9-.7,1.9-.7,3s.2,2.2.7,3c.5.9,1.1,1.5,1.9,2s1.8.7,2.8.7,2.4-.4,3.3-1.1c.8-.7,1.4-1.7,1.7-3h-6v-2.7h9.5v3.1c-.2,1.2-.7,2.3-1.5,3.4-.8,1-1.8,1.9-3,2.5s-2.6.9-4.1.9-3.2-.4-4.6-1.1-2.4-1.8-3.2-3.2-1.2-2.9-1.2-4.6.4-3.3,1.2-4.6,1.8-2.4,3.2-3.2c1.4-.8,2.9-1.1,4.5-1.1s3.7.5,5.1,1.4c1.5,1,2.5,2.3,3,4h-4l.2.2Z"/>
    <path class="st1" d="M280.1,299.7c.7-.4,1.6-.6,2.5-.6v3.7h-.9c-1.1,0-1.9.3-2.5.8s-.8,1.4-.8,2.7v6.9h-3.5v-13.9h3.5v2.1c.4-.7,1-1.3,1.8-1.7h-.1Z"/>
    <path class="st1" d="M287.5,312.4c-1.1-.6-1.9-1.4-2.5-2.5s-.9-2.3-.9-3.8.3-2.7.9-3.8,1.5-1.9,2.6-2.5,2.3-.9,3.6-.9,2.5.3,3.6.9,1.9,1.4,2.6,2.5.9,2.3.9,3.8-.3,2.7-1,3.8c-.6,1.1-1.5,1.9-2.6,2.5s-2.3.9-3.7.9-2.5-.3-3.6-.9h.1ZM292.9,309.8c.6-.3,1-.8,1.3-1.4s.5-1.4.5-2.2c0-1.3-.3-2.3-1-3s-1.5-1.1-2.5-1.1-1.8.4-2.5,1.1-1,1.7-1,3,.3,2.3,1,3,1.5,1.1,2.5,1.1,1.2-.2,1.8-.5h0Z"/>
    <path class="st1" d="M320.1,299.3l-4,13.9h-3.8l-2.5-9.7-2.5,9.7h-3.8l-4.1-13.9h3.6l2.5,10.6,2.7-10.6h3.7l2.6,10.5,2.5-10.5h3.3-.2Z"/>
    <path class="st1" d="M326.1,302.1v6.7c0,.5.1.8.3,1,.2.2.6.3,1.1.3h1.6v3h-2.2c-3,0-4.4-1.4-4.4-4.3v-6.7h-1.7v-2.9h1.7v-3.4h3.5v3.4h3.1v2.9h-3.1.1Z"/>
    <path class="st1" d="M342.3,299.7c.8.5,1.5,1.1,1.9,2,.5.9.7,2,.7,3.2v8.1h-3.5v-7.6c0-1.1-.3-1.9-.8-2.5s-1.3-.9-2.2-.9-1.7.3-2.3.9c-.6.6-.8,1.4-.8,2.5v7.6h-3.5v-18.5h3.5v6.4c.5-.6,1-1.1,1.8-1.4s1.6-.5,2.5-.5,2,.2,2.8.7h-.1Z"/>
  </g>
  <g>
    <path class="st1" d="M462.6,251.7c1.4.7,2.5,1.7,3.2,3.1s1.1,2.9,1.1,4.6-.4,3.3-1.1,4.6-1.8,2.3-3.2,3c-1.4.7-3,1.1-4.8,1.1h-6.1v-17.5h6.1c1.8,0,3.4.4,4.8,1.1h0ZM461.9,263.6c1-1,1.5-2.4,1.5-4.2s-.5-3.2-1.5-4.3-2.4-1.5-4.2-1.5h-2.5v11.5h2.5c1.8,0,3.2-.5,4.2-1.5h0Z"/>
    <path class="st1" d="M482.4,262.2h-10.1c0,1,.4,1.8,1.1,2.4.6.6,1.4.9,2.3.9,1.3,0,2.2-.6,2.8-1.7h3.8c-.4,1.3-1.2,2.4-2.3,3.3-1.1.9-2.5,1.3-4.2,1.3s-2.5-.3-3.6-.9-1.9-1.4-2.5-2.5-.9-2.3-.9-3.8.3-2.7.9-3.8c.6-1.1,1.4-1.9,2.4-2.5,1.1-.6,2.3-.9,3.6-.9s2.5.3,3.5.9c1,.6,1.9,1.4,2.4,2.4.6,1,.9,2.2.9,3.6s0,1-.1,1.4h0ZM478.9,259.9c0-.9-.3-1.6-1-2.2-.6-.5-1.4-.8-2.3-.8s-1.6.3-2.2.8-1,1.3-1.1,2.2h6.6Z"/>
    <path class="st1" d="M487.3,267.7c-.9-.4-1.6-1-2.1-1.7s-.8-1.5-.9-2.3h3.5c0,.5.3,1,.8,1.3s1,.5,1.7.5,1.2-.1,1.6-.4.6-.6.6-1-.2-.8-.7-1-1.2-.5-2.2-.7-1.9-.5-2.5-.8c-.7-.3-1.2-.7-1.7-1.2s-.7-1.3-.7-2.2.2-1.5.7-2.1c.4-.6,1.1-1.1,1.9-1.5s1.8-.6,2.9-.6c1.6,0,3,.4,4,1.2s1.5,1.9,1.6,3.3h-3.3c0-.5-.3-1-.7-1.3-.4-.3-1-.5-1.6-.5s-1.1.1-1.5.3c-.3.2-.5.6-.5,1s.2.8.7,1.1c.5.2,1.2.5,2.2.7s1.8.5,2.5.8,1.2.7,1.7,1.2c.5.6.7,1.3.7,2.2s-.2,1.5-.7,2.2c-.4.6-1.1,1.1-1.9,1.5s-1.8.5-2.9.5-2.1-.2-3-.6h-.2Z"/>
    <path class="st1" d="M498.9,252c-.4-.4-.6-.9-.6-1.5s.2-1.1.6-1.5.9-.6,1.5-.6,1.1.2,1.5.6c.4.4.6.9.6,1.5s-.2,1.1-.6,1.5-.9.6-1.5.6-1.1-.2-1.5-.6ZM502.2,254.3v13.9h-3.5v-13.9h3.5Z"/>
    <path class="st1" d="M513.8,254.6c.8.4,1.4.9,1.9,1.6v-2h3.5v14c0,1.3-.3,2.4-.8,3.4s-1.3,1.8-2.3,2.4-2.3.9-3.8.9-3.6-.5-4.8-1.4c-1.3-.9-2-2.2-2.1-3.8h3.5c.2.6.6,1.1,1.2,1.5s1.3.6,2.2.6,1.8-.3,2.5-.9,1-1.5,1-2.8v-2.1c-.5.6-1.1,1.2-1.9,1.6-.8.4-1.7.6-2.7.6s-2.2-.3-3.2-.9-1.7-1.4-2.3-2.5c-.6-1.1-.8-2.3-.8-3.8s.3-2.6.8-3.7c.6-1.1,1.3-1.9,2.3-2.5s2-.9,3.2-.9,1.9.2,2.7.6h-.1ZM515.1,259c-.3-.6-.8-1.1-1.4-1.4-.6-.3-1.2-.5-1.8-.5s-1.2.2-1.8.5c-.5.3-1,.8-1.3,1.4s-.5,1.3-.5,2.2.2,1.6.5,2.2.8,1.1,1.4,1.4,1.2.5,1.8.5,1.3-.2,1.8-.5c.6-.3,1-.8,1.4-1.4s.5-1.3.5-2.2-.2-1.6-.5-2.2h-.1Z"/>
    <path class="st1" d="M534.3,255.6c1,1,1.5,2.5,1.5,4.4v8.1h-3.5v-7.6c0-1.1-.3-1.9-.8-2.5-.6-.6-1.3-.9-2.2-.9s-1.7.3-2.3.9-.8,1.4-.8,2.5v7.6h-3.5v-13.9h3.5v1.7c.5-.6,1.1-1.1,1.8-1.4.7-.3,1.5-.5,2.4-.5,1.7,0,3,.5,4,1.6h-.1Z"/>
    <path class="st1" d="M452.6,280.7v2.8h-4.6v14.6h-3.5v-14.6h-4.7v-2.8h12.8Z"/>
    <path class="st1" d="M465.7,284.7c.8.5,1.5,1.1,1.9,2s.7,2,.7,3.2v8.1h-3.5v-7.6c0-1.1-.3-1.9-.8-2.5-.6-.6-1.3-.9-2.2-.9s-1.7.3-2.3.9c-.6.6-.8,1.4-.8,2.5v7.6h-3.5v-18.5h3.5v6.4c.4-.6,1-1.1,1.8-1.4s1.6-.5,2.5-.5,2,.2,2.8.7h-.1Z"/>
    <path class="st1" d="M471.9,282c-.4-.4-.6-.9-.6-1.5s.2-1.1.6-1.5.9-.6,1.5-.6,1.1.2,1.5.6.6.9.6,1.5-.2,1.1-.6,1.5-.9.6-1.5.6-1.1-.2-1.5-.6ZM475.1,284.3v13.9h-3.5v-13.9h3.5Z"/>
    <path class="st1" d="M490.3,285.6c1,1,1.5,2.5,1.5,4.4v8.1h-3.5v-7.6c0-1.1-.3-1.9-.8-2.5-.6-.6-1.3-.9-2.2-.9s-1.7.3-2.3.9c-.6.6-.8,1.4-.8,2.5v7.6h-3.5v-13.9h3.5v1.7c.5-.6,1.1-1.1,1.8-1.4.7-.3,1.5-.5,2.4-.5,1.6,0,3,.5,4,1.6h-.1Z"/>
    <path class="st1" d="M503.3,298.1l-4.7-5.9v5.9h-3.5v-18.5h3.5v10.5l4.6-5.9h4.5l-6.1,7,6.2,6.9h-4.6.1Z"/>
    <path class="st1" d="M509.9,282c-.4-.4-.6-.9-.6-1.5s.2-1.1.6-1.5.9-.6,1.5-.6,1.1.2,1.5.6.6.9.6,1.5-.2,1.1-.6,1.5-.9.6-1.5.6-1.1-.2-1.5-.6h0ZM513.2,284.3v13.9h-3.5v-13.9h3.5Z"/>
    <path class="st1" d="M528.3,285.6c1,1,1.5,2.5,1.5,4.4v8.1h-3.5v-7.6c0-1.1-.3-1.9-.8-2.5s-1.3-.9-2.2-.9-1.7.3-2.3.9-.8,1.4-.8,2.5v7.6h-3.5v-13.9h3.5v1.7c.5-.6,1.1-1.1,1.8-1.4s1.5-.5,2.4-.5c1.6,0,3,.5,4,1.6h-.1Z"/>
    <path class="st1" d="M541.3,284.6c.8.4,1.4.9,1.8,1.6v-2h3.5v14c0,1.3-.3,2.4-.8,3.4s-1.3,1.8-2.3,2.4-2.3.9-3.8.9-3.6-.5-4.8-1.4c-1.3-.9-2-2.2-2.1-3.8h3.5c.2.6.6,1.1,1.2,1.5s1.3.6,2.2.6,1.8-.3,2.5-.9,1-1.5,1-2.8v-2.1c-.5.6-1.1,1.2-1.9,1.6-.8.4-1.7.6-2.7.6s-2.2-.3-3.2-.9-1.7-1.4-2.3-2.5-.8-2.3-.8-3.8.3-2.6.8-3.7c.6-1.1,1.3-1.9,2.3-2.5s2-.9,3.2-.9,1.9.2,2.7.6h0ZM542.7,289c-.3-.6-.8-1.1-1.3-1.4-.6-.3-1.2-.5-1.8-.5s-1.2.2-1.8.5-1,.8-1.3,1.4-.5,1.3-.5,2.2.2,1.6.5,2.2.8,1.1,1.3,1.4c.6.3,1.2.5,1.8.5s1.3-.2,1.8-.5c.6-.3,1-.8,1.3-1.4s.5-1.3.5-2.2-.2-1.6-.5-2.2Z"/>
  </g>
</svg>