<?xml version="1.0" encoding="UTF-8"?>
<svg id="Layer_1" xmlns="http://www.w3.org/2000/svg" version="1.1" viewBox="0 0 196 60">
  <!-- Generator: Adobe Illustrator 29.0.1, SVG Export Plug-In . SVG Version: 2.1.0 Build 192)  -->
  <defs>
    <style>
      .st0 {
        fill: #fff;
      }
    </style>
  </defs>
  <polygon class="st0" points="27.6 41.2 41.9 8.3 56.5 41.2 51.2 41.2 42 19.5 32.3 41.2 27.6 41.2"/>
  <polygon class="st0" points="27.6 41.2 41.9 8.3 56.5 41.2 51.2 41.2 42 19.5 32.3 41.2 27.6 41.2"/>
  <path class="st0" d="M64.1,41.1c-1.6-.8-2.9-2-3.8-3.5-.9-1.5-1.4-3.2-1.5-5.2h4.5c.1,1.6.7,2.9,1.8,3.9,1.1,1,2.6,1.5,4.3,1.5s3-.4,3.9-1.3c1-.9,1.4-2,1.4-3.4s-.5-2.5-1.5-3.1c-1-.7-2.6-1.4-4.8-2-2-.6-3.5-1.3-4.8-1.9-1.2-.6-2.3-1.6-3.2-2.9-.9-1.3-1.3-2.9-1.3-5s.4-3.1,1.2-4.5c.8-1.4,1.9-2.5,3.4-3.3,1.5-.8,3.2-1.2,5-1.2,2.9,0,5.3.9,7.1,2.7,1.8,1.8,2.8,4.3,2.9,7.4h-4.4c0-1.7-.6-3-1.7-4-1-1-2.4-1.5-4.1-1.5s-2.8.4-3.7,1.2c-.9.8-1.4,1.9-1.4,3.2s.3,1.9.8,2.6c.6.7,1.3,1.2,2.1,1.6.8.4,2,.9,3.5,1.4,1.9.6,3.4,1.2,4.6,1.8,1.2.6,2.2,1.5,3.1,2.7.8,1.2,1.3,2.8,1.3,4.8,0,1.8-.4,3.3-1.2,4.8-.8,1.4-1.9,2.5-3.4,3.3-1.5.8-3.1,1.2-5,1.2s-3.8-.4-5.4-1.3"/>
  <path class="st0" d="M64.1,41.1c-1.6-.8-2.9-2-3.8-3.5-.9-1.5-1.4-3.2-1.5-5.2h4.5c.1,1.6.7,2.9,1.8,3.9,1.1,1,2.6,1.5,4.3,1.5s3-.4,3.9-1.3c1-.9,1.4-2,1.4-3.4s-.5-2.5-1.5-3.1c-1-.7-2.6-1.4-4.8-2-2-.6-3.5-1.3-4.8-1.9-1.2-.6-2.3-1.6-3.2-2.9-.9-1.3-1.3-2.9-1.3-5s.4-3.1,1.2-4.5c.8-1.4,1.9-2.5,3.4-3.3,1.5-.8,3.2-1.2,5-1.2,2.9,0,5.3.9,7.1,2.7,1.8,1.8,2.8,4.3,2.9,7.4h-4.4c0-1.7-.6-3-1.7-4-1-1-2.4-1.5-4.1-1.5s-2.8.4-3.7,1.2c-.9.8-1.4,1.9-1.4,3.2s.3,1.9.8,2.6c.6.7,1.3,1.2,2.1,1.6.8.4,2,.9,3.5,1.4,1.9.6,3.4,1.2,4.6,1.8,1.2.6,2.2,1.5,3.1,2.7.8,1.2,1.3,2.8,1.3,4.8,0,1.8-.4,3.3-1.2,4.8-.8,1.4-1.9,2.5-3.4,3.3-1.5.8-3.1,1.2-5,1.2s-3.8-.4-5.4-1.3Z"/>
  <path class="st0" d="M137,25.8c.9.8,1.6,1.8,2.2,2.9.5,1.2.8,2.4.8,3.7s-.4,3.2-1.2,4.5c-.8,1.3-1.9,2.4-3.4,3.2-1.5.8-3.3,1.2-5.3,1.2h-11.4V8.3h10.9c2.1,0,3.8.4,5.3,1.1,1.5.7,2.5,1.7,3.3,3,.7,1.3,1.1,2.7,1.1,4.3s-.5,3.6-1.5,4.9c-1,1.3-2.3,2.2-3.9,2.8,1.1.2,2.1.7,3,1.5M122.7,22.6h6.7c1.9,0,3.3-.5,4.3-1.4,1-.9,1.5-2.3,1.5-3.9s-.5-3-1.5-3.9c-1-.9-2.5-1.4-4.4-1.4h-6.6v10.7ZM134.4,36.3c1.1-1,1.7-2.4,1.7-4.2s-.6-3.3-1.7-4.3c-1.2-1.1-2.7-1.6-4.7-1.6h-6.9v11.7h7c2,0,3.5-.5,4.6-1.5"/>
  <path class="st0" d="M137,25.8c.9.8,1.6,1.8,2.2,2.9.5,1.2.8,2.4.8,3.7s-.4,3.2-1.2,4.5c-.8,1.3-1.9,2.4-3.4,3.2-1.5.8-3.3,1.2-5.3,1.2h-11.4V8.3h10.9c2.1,0,3.8.4,5.3,1.1,1.5.7,2.5,1.7,3.3,3,.7,1.3,1.1,2.7,1.1,4.3s-.5,3.6-1.5,4.9c-1,1.3-2.3,2.2-3.9,2.8,1.1.2,2.1.7,3,1.5ZM122.7,22.6h6.7c1.9,0,3.3-.5,4.3-1.4,1-.9,1.5-2.3,1.5-3.9s-.5-3-1.5-3.9c-1-.9-2.5-1.4-4.4-1.4h-6.6v10.7ZM134.4,36.3c1.1-1,1.7-2.4,1.7-4.2s-.6-3.3-1.7-4.3c-1.2-1.1-2.7-1.6-4.7-1.6h-6.9v11.7h7c2,0,3.5-.5,4.6-1.5Z"/>
  <path class="st0" d="M149.4,8.3v20.9c0,2.9.7,5.1,2,6.5,1.3,1.4,3.2,2.1,5.5,2.1s4.2-.7,5.5-2.1c1.3-1.4,2-3.6,2-6.5V8.3h4v20.9c0,2.7-.5,5.1-1.5,6.9-1,1.9-2.4,3.3-4.1,4.2-1.7.9-3.7,1.4-5.8,1.4s-4.1-.5-5.8-1.4c-1.7-.9-3.1-2.3-4.1-4.2-1-1.9-1.5-4.2-1.5-6.9V8.3h4Z"/>
  <path class="st0" d="M149.4,8.3v20.9c0,2.9.7,5.1,2,6.5,1.3,1.4,3.2,2.1,5.5,2.1s4.2-.7,5.5-2.1c1.3-1.4,2-3.6,2-6.5V8.3h4v20.9c0,2.7-.5,5.1-1.5,6.9-1,1.9-2.4,3.3-4.1,4.2-1.7.9-3.7,1.4-5.8,1.4s-4.1-.5-5.8-1.4c-1.7-.9-3.1-2.3-4.1-4.2-1-1.9-1.5-4.2-1.5-6.9V8.3h4Z"/>
  <polygon class="st0" points="131.3 58.1 133 58.1 135.6 52.7 138 58.1 139.8 58.1 135.5 48.8 131.3 58.1"/>
  <polygon class="st0" points="120.5 49.1 118.7 49.1 118.7 58.2 123.5 58.2 123.5 56.6 120.5 56.6 120.5 49.1"/>
  <path class="st0" d="M152.5,53.5c.3-.2.5-.4.7-.6.3-.4.4-.8.4-1.4s-.1-.9-.4-1.2c-.2-.4-.6-.7-1-.9-.5-.2-1-.3-1.6-.3h-3.5v9.1h3.7c.6,0,1.1-.1,1.6-.3.5-.2.8-.5,1.1-.9.2-.4.4-.8.4-1.3s-.2-1.1-.5-1.5c-.2-.3-.5-.5-.8-.6M152,55.5c0,.4-.1.6-.3.8h0c-.2.2-.6.3-1,.3h-1.7v-2.3h1.7c.4,0,.8.1,1,.3.2.2.4.5.4.9M148.9,52.7v-2.1h1.6c.4,0,.7,0,1,.3.2.2.3.4.3.8s-.1.6-.3.8c-.2.2-.6.3-1,.3h-1.6Z"/>
  <path class="st0" d="M166.2,54.1c-.3-.4-.6-.6-1-.8-.4-.2-.9-.3-1.4-.5-.4-.1-.8-.2-1-.3-.2,0-.4-.2-.6-.4-.1-.1-.2-.3-.2-.5,0-.3.1-.6.3-.8.2-.2.5-.3.9-.3s.7,0,1,.3c.2.2.4.4.4.7v.2h2v-.2c0-.8-.4-1.4-1-1.9-.6-.4-1.3-.7-2.2-.7s-1.2.1-1.6.3c-.5.2-.9.5-1.1.9-.3.4-.4.9-.4,1.4s.1,1.1.4,1.4c.3.4.6.6,1,.8.4.2.8.3,1.4.5.4.1.8.2,1,.3.2,0,.4.2.6.4.1.1.2.3.2.6s-.1.6-.3.8c-.2.2-.6.3-1,.3s-.8-.1-1-.3c-.2-.2-.4-.5-.4-.8v-.2h-1.9v.2c0,.5.1,1,.4,1.4.3.4.7.7,1.2.9.5.2,1,.3,1.7.3s1.2-.1,1.7-.4c.5-.3.9-.6,1.1-1,.3-.4.4-.9.4-1.4s-.1-1.1-.4-1.4"/>
  <path class="st0" d="M112.4,26.5c-.2-1.6-1.2-3.1-2.7-3.8.3-.9.5-2.4-.3-3.9-.5-.9-1.2-1.5-1.9-1.9-.2-.9-.5-1.7-1-2.4-1.5-2.1-4.2-2.5-5.9-2.3-.9.1-1.7.4-2.5.9-.8-.5-1.6-.8-2.5-.9-1.8-.2-4.4.2-5.9,2.3-.5.7-.9,1.5-1,2.4-.6.4-1.3,1-1.8,1.9-.8,1.5-.6,3-.3,3.9-1.5.8-2.5,2.2-2.7,3.8-.2,1.7.5,3.1,1,3.8-.7,1.1-.7,2.6,0,3.6.4.5.8.8,1.3.9-.4,1-.4,2.2,0,3.2.6,1.5,2.2,2.5,3.8,2.5.3.7.8,1.6,1.7,2.2.9.6,2,1,3.1,1s2.4-.4,3.1-1.2c0,0,0-.1.1-.2,0,0,0,.1.1.2.7.8,1.9,1.2,3.1,1.2s2.2-.3,3.1-1c.9-.6,1.4-1.5,1.7-2.2,1.7,0,3.2-1,3.8-2.5.4-1,.4-2.2,0-3.2.4-.2.9-.4,1.3-.9.8-1,.8-2.4,0-3.6.5-.7,1.3-2.1,1-3.8M96.8,41.3c-.9.9-2.9.9-4.2,0-.8-.6-1.2-1.4-1.4-2-.1-.3-.4-.6-.7-.6s0,0-.1,0c-1.2.2-2.4-.5-2.8-1.5-.4-.9-.2-1.9.4-2.6.2-.2.2-.6,0-.8-.1-.3-.4-.5-.7-.4,0,0-.8,0-1.2-.5-.4-.6-.3-1.5.3-2.1.3-.3.3-.8,0-1.1-.1-.1-1.3-1.3-1-3,.2-1.3,1.1-2.4,2.4-2.9l3.9-.8c.4,0,.7-.5.6-.9,0-.4-.5-.7-.9-.6l-3.4.7c-.2-.6-.3-1.7.2-2.7.4-.8,1.1-1.2,1.5-1.4.2-.1.4-.3.4-.6,0,0,0,0,0-.1,0,0,0,0,0,0l2.2.8c-.1.3-.2.6-.3.9,0,.4.2.8.5.9,0,0,.1,0,.2,0,.3,0,.6-.2.7-.5l.5-1.4c.3-.4.6-.7,1-1,.4-.2.5-.7.2-1.1-.2-.4-.7-.5-1.1-.2-.4.3-.8.6-1.1,1l-2.4-.9s0,0-.1,0c0-.1.2-.3.3-.4,1.1-1.5,3.1-1.9,4.5-1.7.7,0,1.3.3,1.9.7,0,2.3,0,4.5,0,6.5-.3,0-.5-.2-.7-.3-.3-.2-.6-.5-.7-.7-.3-.3-.8-.4-1.1-.1-.3.3-.4.8-.1,1.1,0,0,0,0,0,0,0,.2.1.3.2.4,0,0,.4.3.8.5.3.2.7.4,1.1.5.2,0,.4,0,.5.1,0,2.5,0,4.8,0,6.9-.6-.2-1.1-.6-1.2-.7,0,0-.2-.2-.2-.3-.3-.3-.8-.4-1.1-.1-.3.3-.4.8-.1,1.1,0,0,.2.2.3.3,0,0,0,0,.1.1,0,0,0,0,0,0,.4.4,1,.8,1.7,1.1.2,0,.4.1.6.1,0,4.2,0,7.3.1,8.8,0,0,0,.2,0,.3,0,.3-.2.8-.5,1.1M109.8,30.7c.6.6.7,1.6.3,2.1-.4.5-1.2.5-1.2.5-.3,0-.6.2-.7.4-.1.3,0,.6,0,.8.6.8.8,1.8.4,2.6-.4,1.1-1.6,1.7-2.8,1.5-.4,0-.7.2-.8.5-.2.6-.6,1.4-1.4,2-1.3.9-3.3.9-4.2,0-.3-.3-.4-.8-.5-1.1,0,0,0-.2,0-.3,0-1.5.1-4.6.1-8.8.2,0,.4,0,.6-.1.6-.2,1.2-.6,1.7-1.1,0,0,0,0,0,0,0,0,0,0,.1-.1,0,0,.2-.2.3-.3.3-.3.2-.8-.1-1.1-.3-.3-.8-.2-1.1.1,0,0-.1.2-.2.3-.2.1-.6.5-1.2.7,0-2.1,0-4.4,0-6.9.2,0,.3,0,.5-.1.4-.1.8-.3,1.1-.6.4-.2.7-.5.8-.5.1-.1.2-.3.2-.4,0,0,0,0,0,0,.3-.3.2-.8-.1-1.1-.3-.3-.8-.2-1.1.1-.2.2-.4.4-.7.6-.2.1-.5.2-.7.3,0-2.1,0-4.3,0-6.5.6-.3,1.2-.6,1.9-.7,1.3-.2,3.3.1,4.5,1.7,0,.1.2.3.3.4,0,0,0,0-.1,0l-2.4.9c-.3-.4-.7-.7-1.1-1-.4-.2-.8-.1-1.1.2-.2.4-.1.8.2,1.1.4.3.7.6,1,1l.5,1.4c.1.3.4.5.7.5s.1,0,.2,0c.4-.1.6-.5.5-.9,0-.3-.1-.6-.3-.9l2.2-.8s0,0,0,0c0,0,0,0,0,.1,0,.3.2.5.4.6.4.2,1.1.6,1.5,1.4.5,1,.4,2.1.2,2.7l-3.4-.7c-.4,0-.8.2-.9.6,0,.4.2.8.6.9l3.9.8c1.3.5,2.2,1.6,2.4,2.9.2,1.6-.8,2.8-1,3-.3.3-.3.8,0,1.1"/>
  <path class="st0" d="M106.7,32.5c-.4-.2-.9,0-1.1.3-.5,1-1.4,1.5-2.4,1.4-.8,0-1.3-.6-1.5-.9-.2-.3-.6-.4-.9-.2-.3.1-.5.5-.5.8l.5,3.8c0,.4.4.7.8.7s0,0,.1,0c.4,0,.7-.4.7-.9l-.3-2c.3.1.6.2.9.2,1.6.2,3.1-.7,3.9-2.3.2-.4,0-.9-.3-1.1"/>
  <path class="st0" d="M102.7,30.9c-.3.3-.4.8-.1,1.1.2.2.4.3.6.3s.3,0,.5-.2c.3-.3,1.2-1,1.3-2.3,0-.8-.2-1.5-.4-1.9-.2-.4-.7-.5-1.1-.3-.4.2-.5.7-.3,1.1.1.2.2.6.2,1,0,.7-.6,1.1-.7,1.2"/>
  <path class="st0" d="M104.1,26c.6-.2,1.3-.2,2-.2.4,0,.8-.3.8-.7,0-.4-.3-.8-.7-.8-.8,0-1.7,0-2.5.2-.9.2-1.7.6-2.4,1.1-.4.2-.4.7-.2,1.1.2.2.4.3.6.3s.3,0,.4-.1c.6-.4,1.2-.7,1.9-.9"/>
  <path class="st0" d="M95.2,33.2c-.3-.1-.7,0-.9.2-.2.2-.7.8-1.5.9-.9.1-1.9-.5-2.4-1.4-.2-.4-.7-.5-1.1-.3-.4.2-.5.7-.3,1.1.8,1.5,2.4,2.4,3.9,2.3.3,0,.6-.1.9-.2l-.3,2c0,.4.2.8.7.9,0,0,0,0,.1,0,.4,0,.7-.3.8-.7l.5-3.8c0-.3-.1-.7-.5-.8"/>
  <path class="st0" d="M92.7,27.6c-.4-.2-.9,0-1.1.3-.2.4-.4,1.1-.4,1.9.1,1.3.9,2,1.3,2.3.1.1.3.2.5.2s.5-.1.6-.3c.3-.3.2-.8-.1-1.1-.1-.1-.6-.6-.7-1.2,0-.4,0-.8.2-1,.2-.4,0-.9-.3-1.1"/>
  <path class="st0" d="M90.1,25.8c.7,0,1.3,0,2,.2.7.2,1.3.5,1.9.9.1,0,.3.1.4.1.2,0,.5-.1.6-.3.2-.4.2-.8-.2-1.1-.7-.5-1.5-.9-2.4-1.1-.8-.2-1.6-.3-2.5-.2-.4,0-.8.4-.7.8,0,.4.4.8.8.7"/>
  <path class="st0" d="M84.2,8.7l3.1,2.5c.1.1.3.2.5.2s.5-.1.6-.3c.3-.3.2-.8-.1-1.1l-3.1-2.5c-.3-.3-.8-.2-1.1.1-.3.3-.2.8.1,1.1"/>
  <path class="st0" d="M91.1,8.4c.1.3.4.4.7.4s.2,0,.4,0c.4-.2.5-.7.3-1l-1.8-3.6c-.2-.4-.7-.5-1-.3-.4.2-.5.7-.3,1l1.8,3.6Z"/>
  <path class="st0" d="M100.7,8.2c.1,0,.2,0,.4,0,.3,0,.6-.2.7-.4l1.9-3.5c.2-.4,0-.9-.3-1.1-.4-.2-.9,0-1.1.3l-1.9,3.5c-.2.4,0,.9.3,1.1"/>
  <path class="st0" d="M105.8,11c.2,0,.4,0,.5-.2l3-2.7c.3-.3.3-.8,0-1.1-.3-.3-.8-.3-1.1,0l-3,2.7c-.3.3-.3.8,0,1.1.2.2.4.3.6.3"/>
  <path class="st0" d="M96.5,7.3h0c.4,0,.8-.3.8-.8V2.5c0-.4-.3-.8-.7-.8h0c-.4,0-.8.3-.8.8v4c0,.4.3.8.7.8"/>
</svg>