<?xml version="1.0" encoding="UTF-8"?>
<svg id="Layer_1" xmlns="http://www.w3.org/2000/svg" version="1.1" viewBox="0 0 196 60">
  <!-- Generator: Adobe Illustrator 29.0.1, SVG Export Plug-In . SVG Version: 2.1.0 Build 192)  -->
  <defs>
    <style>
      .st0 {
        fill: #fff;
      }
    </style>
  </defs>
  <polygon class="st0" points="25.4 41.6 30.2 41.6 40.2 19.1 49.7 41.6 55.1 41.6 40.1 7.6 25.4 41.6"/>
  <path class="st0" d="M74,25.5c-1.2-.6-2.8-1.3-4.8-1.9-1.6-.5-2.8-1-3.6-1.4-.9-.4-1.6-1-2.2-1.7-.6-.7-.9-1.6-.9-2.7s.5-2.5,1.4-3.3c1-.8,2.2-1.3,3.9-1.3s3.1.5,4.2,1.6c1,1.1,1.6,2.4,1.7,4.2h4.5c-.1-3.2-1.1-5.8-3-7.6-1.9-1.9-4.3-2.8-7.3-2.8s-3.7.4-5.2,1.2c-1.5.8-2.7,1.9-3.5,3.4-.8,1.4-1.2,3-1.2,4.7s.5,3.9,1.4,5.2c.9,1.3,2,2.3,3.3,3,1.3.7,2.9,1.3,4.9,2,2.2.7,3.9,1.4,4.9,2.1,1.1.7,1.6,1.8,1.6,3.2s-.5,2.6-1.5,3.5c-1,.9-2.3,1.4-4.1,1.4s-3.3-.5-4.5-1.6c-1.1-1-1.8-2.4-1.9-4.1h-4.7c0,2,.6,3.8,1.6,5.4,1,1.6,2.3,2.8,3.9,3.6,1.7.9,3.5,1.3,5.6,1.3s3.7-.4,5.2-1.2c1.5-.8,2.7-2,3.5-3.4.8-1.5,1.2-3.1,1.2-4.9,0-2-.5-3.7-1.4-4.9-.9-1.3-1.9-2.2-3.1-2.8Z"/>
  <path class="st0" d="M138.3,25.7c-.9-.8-2-1.3-3.1-1.5,1.7-.6,3-1.5,4-2.9,1-1.3,1.5-3,1.5-5s-.4-3.1-1.1-4.4c-.8-1.3-1.9-2.3-3.4-3.1-1.5-.8-3.3-1.1-5.5-1.1h-11.3v34.1h11.7c2.1,0,3.9-.4,5.5-1.2,1.5-.8,2.7-1.9,3.5-3.3.8-1.4,1.2-2.9,1.2-4.7s-.3-2.7-.8-3.9c-.6-1.2-1.3-2.2-2.3-3ZM123.5,11.3h6.8c2,0,3.5.5,4.6,1.5,1.1,1,1.6,2.3,1.6,4.1s-.5,3.1-1.6,4.1c-1.1,1-2.5,1.5-4.5,1.5h-6.9v-11.1ZM135.5,36.5c-1.1,1-2.7,1.6-4.8,1.6h-7.3v-12h7.1c2,0,3.6.5,4.8,1.6,1.2,1.1,1.8,2.6,1.8,4.5s-.6,3.3-1.7,4.4Z"/>
  <path class="st0" d="M166.5,7.6v21.6c0,3-.7,5.3-2.1,6.8-1.4,1.5-3.3,2.2-5.7,2.2s-4.3-.7-5.7-2.2c-1.4-1.5-2.1-3.7-2.1-6.8V7.6h-4.1v21.5c0,2.8.5,5.2,1.6,7.2,1,1.9,2.5,3.4,4.2,4.3,1.8.9,3.8,1.4,6,1.4s4.2-.5,6-1.4c1.8-.9,3.2-2.4,4.3-4.3,1.1-1.9,1.6-4.3,1.6-7.2V7.6h-4.1Z"/>
  <polygon class="st0" points="132.4 59.1 134.2 59.1 136.8 53.4 139.3 59.1 141.2 59.1 136.8 49.4 132.4 59.1"/>
  <polygon class="st0" points="121.3 49.7 119.4 49.7 119.4 59.1 124.3 59.1 124.3 57.5 121.3 57.5 121.3 49.7"/>
  <path class="st0" d="M154.3,54.2c.3-.2.5-.4.7-.6.3-.4.5-.9.5-1.4s-.1-.9-.4-1.3c-.2-.4-.6-.7-1.1-.9-.5-.2-1-.3-1.7-.3h-3.6v9.4h3.8c.6,0,1.2-.1,1.7-.3.5-.2.9-.5,1.1-.9.3-.4.4-.8.4-1.3s-.2-1.1-.5-1.6c-.2-.3-.5-.5-.8-.7ZM150.6,51.3h1.6c.4,0,.8,0,1,.3.2.2.3.5.3.8s-.1.6-.3.8c-.2.2-.6.3-1,.3h-1.6v-2.2ZM153.4,57.2h0c-.2.2-.6.3-1,.3h-1.8v-2.4h1.7c.4,0,.8.1,1.1.3.3.2.4.5.4.9s-.1.7-.4.9Z"/>
  <path class="st0" d="M167.4,54c-.4-.2-.9-.3-1.5-.5-.4-.1-.8-.2-1-.3-.2,0-.4-.2-.6-.4-.1-.1-.2-.3-.2-.5,0-.3.1-.6.3-.8.2-.2.5-.3.9-.3s.8.1,1,.3c.2.2.4.4.4.7v.2h2v-.2c0-.8-.4-1.5-1-1.9-.6-.5-1.4-.7-2.3-.7s-1.2.1-1.7.3c-.5.2-.9.5-1.2,1-.3.4-.4.9-.4,1.5s.1,1.1.4,1.5c.3.4.6.6,1,.8.4.2.9.3,1.5.5.5.1.8.2,1.1.3.2,0,.4.2.6.4.1.2.2.3.2.6s-.1.6-.4.8c-.2.2-.6.3-1.1.3s-.8-.1-1-.3c-.2-.2-.4-.5-.4-.8v-.2h-2v.2c0,.6.2,1.1.5,1.5.3.4.7.7,1.2,1,.5.2,1.1.3,1.7.3s1.3-.1,1.8-.4c.5-.3.9-.6,1.2-1.1s.4-.9.4-1.4-.1-1.1-.4-1.5c-.3-.4-.6-.6-1-.8Z"/>
  <path class="st0" d="M96.4,6.6h0c.4,0,.8-.4.8-.8V1.6c0-.4-.3-.8-.7-.8h0c-.4,0-.8.4-.8.8v4.1c0,.4.3.8.7.8Z"/>
  <path class="st0" d="M90.8,7.7c.1.3.4.4.7.4s.2,0,.4,0c.4-.2.6-.7.4-1.1l-1.9-3.7c-.2-.4-.7-.6-1.1-.4s-.6.7-.4,1.1l1.9,3.7Z"/>
  <path class="st0" d="M83.8,8l3.2,2.6c.1.1.3.2.5.2s.5-.1.6-.3c.3-.3.2-.9-.1-1.1l-3.2-2.6c-.3-.3-.9-.2-1.1.1-.3.3-.2.9.1,1.1Z"/>
  <path class="st0" d="M112.8,26.3c-.2-1.7-1.3-3.2-2.8-4,.3-.9.5-2.5-.3-4-.5-1-1.3-1.6-1.9-2-.2-.9-.5-1.7-1.1-2.4-1.6-2.1-4.3-2.6-6.1-2.4-.9.1-1.8.4-2.5.9-.8-.5-1.7-.8-2.5-.9-1.8-.2-4.5.2-6.1,2.4-.5.7-.9,1.5-1.1,2.4-.6.4-1.4,1-1.9,2-.8,1.6-.6,3.1-.3,4-1.5.8-2.6,2.3-2.8,4-.2,1.8.5,3.2,1.1,3.9-.7,1.2-.7,2.7,0,3.7.4.5.9.8,1.3.9-.4,1.1-.5,2.2,0,3.3.7,1.6,2.2,2.5,3.9,2.6.3.8.9,1.6,1.8,2.3.9.7,2.1,1,3.2,1s2.4-.4,3.2-1.2c0,0,0-.1.1-.2,0,0,0,.1.1.2.8.8,1.9,1.2,3.2,1.2s2.3-.3,3.2-1c.9-.7,1.5-1.5,1.8-2.3,1.7,0,3.3-1,3.9-2.6.4-1,.4-2.2,0-3.3.4-.2.9-.5,1.3-.9.8-1,.8-2.5,0-3.7.5-.7,1.3-2.1,1.1-3.9ZM96.8,41.7c-.9.9-3,.9-4.3,0-.8-.6-1.2-1.4-1.4-2-.1-.3-.4-.6-.8-.6s0,0-.1,0c-1.3.2-2.4-.5-2.9-1.6-.4-.9-.2-1.9.4-2.7.2-.2.2-.6,0-.9s-.4-.5-.7-.5c0,0-.9,0-1.3-.5-.4-.6-.3-1.5.3-2.2.3-.3.3-.8,0-1.1-.1-.1-1.3-1.4-1.1-3.1.2-1.3,1.1-2.5,2.4-3l4.1-.9c.4,0,.7-.5.6-1,0-.4-.5-.7-1-.6l-3.5.7c-.2-.6-.4-1.7.2-2.8.5-.8,1.2-1.3,1.6-1.5.2-.1.4-.4.4-.6,0,0,0-.1,0-.2,0,0,0,0,0,0l2.3.9c-.1.3-.2.6-.3.9,0,.4.2.8.6.9,0,0,.2,0,.2,0,.3,0,.6-.2.7-.5l.6-1.4c.3-.4.6-.8,1-1,.4-.2.5-.7.2-1.1-.2-.4-.7-.5-1.1-.2-.4.3-.8.6-1.2,1l-2.5-1s0,0-.1,0c0-.1.2-.3.3-.4,1.2-1.6,3.2-1.9,4.6-1.7.7,0,1.3.3,1.9.7,0,2.3,0,4.6,0,6.8-.3,0-.5-.2-.8-.3-.3-.2-.6-.5-.7-.7-.3-.3-.8-.4-1.1-.1-.3.3-.4.8-.1,1.1,0,0,0,0,0,0,0,.2.1.3.3.4,0,0,.4.3.8.6.3.2.7.4,1.1.6.2,0,.4.1.5.1,0,2.6,0,4.9,0,7.1-.6-.2-1.1-.6-1.3-.7,0,0-.2-.2-.2-.3-.3-.3-.8-.4-1.1-.1-.3.3-.4.8-.1,1.1,0,0,.2.2.3.3,0,0,0,0,.1.1,0,0,0,0,0,0,.4.4,1,.8,1.8,1.1.2,0,.4.1.6.1,0,4.4,0,7.6.1,9.1,0,0,0,.2,0,.3,0,.3-.2.8-.5,1.2ZM110.1,30.8c.6.7.7,1.6.3,2.2-.4.5-1.2.5-1.3.5-.3,0-.6.2-.7.5s-.1.6,0,.9c.6.8.8,1.8.4,2.7-.5,1.1-1.7,1.7-2.9,1.6-.4,0-.8.2-.9.6-.2.6-.6,1.5-1.4,2-1.3.9-3.4.9-4.3,0-.3-.4-.5-.8-.5-1.2,0,0,0-.2,0-.3,0-1.5.1-4.7.1-9.1.2,0,.4,0,.6-.1.7-.2,1.3-.6,1.8-1.1,0,0,0,0,0,0,0,0,0,0,.1-.1,0,0,.2-.2.3-.3.3-.3.2-.9-.1-1.1-.3-.3-.9-.2-1.1.1,0,0-.1.2-.2.3-.2.1-.6.5-1.3.7,0-2.2,0-4.5,0-7.1.2,0,.4,0,.5-.1.4-.1.8-.3,1.1-.6.4-.3.7-.5.8-.6.1-.1.2-.3.3-.4,0,0,0,0,0,0,.3-.3.2-.9-.1-1.1s-.9-.2-1.1.1c-.2.2-.4.5-.7.7-.2.1-.5.2-.8.3,0-2.2,0-4.4,0-6.7.6-.4,1.3-.6,1.9-.7,1.4-.2,3.4.1,4.6,1.7.1.1.2.3.3.4,0,0,0,0-.1,0l-2.5,1c-.3-.4-.7-.8-1.2-1-.4-.2-.9-.1-1.1.2-.2.4-.1.9.2,1.1.4.3.8.6,1,1l.6,1.4c.1.3.4.5.7.5s.2,0,.2,0c.4-.1.6-.5.6-.9,0-.3-.1-.6-.3-.9l2.3-.9s0,0,0,0c0,0,0,0,0,.2,0,.3.2.5.4.6.4.2,1.1.6,1.6,1.5.6,1,.4,2.1.2,2.8l-3.5-.7c-.4,0-.9.2-1,.6,0,.4.2.9.6,1l4.1.9c1.3.5,2.3,1.6,2.4,3,.2,1.7-.8,2.9-1.1,3.1-.3.3-.3.8,0,1.1Z"/>
  <path class="st0" d="M100.8,7.5c.1,0,.2,0,.4,0,.3,0,.6-.2.7-.4l1.9-3.7c.2-.4,0-.9-.3-1.1-.4-.2-.9,0-1.1.3l-1.9,3.7c-.2.4,0,.9.3,1.1Z"/>
  <path class="st0" d="M106,10.4c.2,0,.4,0,.5-.2l3.1-2.8c.3-.3.4-.8,0-1.1-.3-.3-.8-.4-1.1,0l-3.1,2.8c-.3.3-.4.8,0,1.1.2.2.4.3.6.3Z"/>
  <path class="st0" d="M107,32.6c-.4-.2-.9,0-1.1.3-.5,1-1.5,1.6-2.4,1.5-.8,0-1.3-.6-1.5-.9-.2-.3-.6-.4-.9-.2-.3.1-.5.5-.5.8l.5,3.9c0,.4.4.7.8.7s0,0,.1,0c.4,0,.8-.5.7-.9l-.3-2c.3.1.6.2.9.2,1.6.2,3.2-.8,4-2.3.2-.4,0-.9-.3-1.1Z"/>
  <path class="st0" d="M102.8,30.9c-.4.3-.4.8-.1,1.1.2.2.4.3.6.3s.3,0,.5-.2c.4-.3,1.2-1.1,1.3-2.4,0-.8-.2-1.5-.4-1.9-.2-.4-.7-.5-1.1-.3-.4.2-.5.7-.3,1.1.1.2.2.6.2,1,0,.7-.6,1.2-.7,1.3Z"/>
  <path class="st0" d="M95.2,33.3c-.3-.1-.7,0-.9.2-.2.2-.7.8-1.5.9-1,.1-1.9-.5-2.4-1.5-.2-.4-.7-.6-1.1-.3-.4.2-.6.7-.3,1.1.8,1.6,2.4,2.5,4,2.3.3,0,.7-.1.9-.2l-.3,2c0,.4.3.8.7.9,0,0,0,0,.1,0,.4,0,.7-.3.8-.7l.5-3.9c0-.4-.1-.7-.5-.8Z"/>
  <path class="st0" d="M104.3,25.9c.7-.2,1.3-.2,2-.2.4,0,.8-.3.9-.7s-.3-.8-.7-.9c-.9,0-1.7,0-2.5.2-.9.2-1.7.6-2.5,1.1-.4.3-.5.8-.2,1.1.2.2.4.3.7.3s.3,0,.5-.1c.6-.4,1.3-.7,2-.9Z"/>
  <path class="st0" d="M92.5,27.6c-.4-.2-.9,0-1.1.3-.2.4-.5,1.1-.4,1.9.1,1.3,1,2.1,1.3,2.4.1.1.3.2.5.2s.5-.1.6-.3c.3-.3.2-.9-.1-1.1-.2-.1-.7-.6-.7-1.3,0-.4,0-.8.2-1,.2-.4,0-.9-.3-1.1Z"/>
  <path class="st0" d="M89.9,25.7c.7,0,1.4,0,2,.2.7.2,1.4.5,2,.9.1,0,.3.1.5.1.3,0,.5-.1.7-.3.3-.4.2-.9-.2-1.1-.8-.5-1.6-.9-2.5-1.1-.8-.2-1.7-.3-2.5-.2-.4,0-.8.4-.7.9s.4.8.9.7Z"/>
</svg>