<?xml version="1.0" encoding="UTF-8"?>
<svg id="Layer_1" xmlns="http://www.w3.org/2000/svg" version="1.1" viewBox="0 0 109 109">
  <!-- Generator: Adobe Illustrator 29.0.1, SVG Export Plug-In . SVG Version: 2.1.0 Build 192)  -->
  <defs>
    <style>
      .st0 {
        fill: #fff;
      }
    </style>
  </defs>
  <path class="st0" d="M56.3,10c-.4-.2-.7-.5-1-.9s-.3-.8-.3-1.2h1.6c0,.4,0,.7.3.9.2.2.5.3.8.3.4,0,.6,0,.9-.2.2-.2.3-.4.4-.7,0-.2,0-.4-.2-.6-.1-.2-.3-.3-.5-.4s-.5-.2-.8-.3c-.5-.2-.9-.4-1.2-.5s-.6-.4-.8-.7-.3-.7-.3-1.2c0-.5.2-.8.4-1.2.3-.3.6-.6,1-.7.4-.1.9-.2,1.4-.2.8,0,1.4.3,1.9.7s.7,1,.7,1.7h-1.7c0-.4,0-.6-.3-.8s-.5-.3-.8-.3c-.3,0-.5,0-.7.2-.2.1-.3.4-.3.6,0,.2,0,.4.2.5s.3.3.5.4c.2,0,.5.2.8.4.5.2.9.4,1.2.5.3.2.6.4.8.7.2.3.3.7.3,1.2,0,.4-.2.8-.4,1.1-.2.3-.6.6-1,.8-.4.2-.9.2-1.5.2-.5,0-1-.2-1.4-.4Z"/>
  <path class="st0" d="M70.7,5l-.3,1.2-2-.5-1.7,6.2-1.5-.4,1.7-6.2-2-.5.3-1.2,5.4,1.5Z"/>
  <path class="st0" d="M75,15.2l-.2-3.4-.7-.3-1.3,2.7-1.4-.7,3.4-6.9,2.6,1.3c.5.3.9.6,1.2,1,.3.4.4.8.5,1.2,0,.4,0,.8-.2,1.2-.2.5-.6.8-1,1s-1,.3-1.5.2l.3,3.6-1.6-.8ZM74.7,10.5l1.2.6c.4.2.7.2,1,.1s.5-.3.6-.6c.2-.3.2-.6,0-.9,0-.3-.3-.5-.7-.7l-1.2-.6-1,2Z"/>
  <path class="st0" d="M83.9,19.4l-2.4-1.9-1.3.8-1.3-1,6.9-4.3,1.4,1.1-2.6,7.8-1.3-1,.5-1.5ZM84.3,18.2l1.1-3.2-2.9,1.8,1.7,1.4Z"/>
  <path class="st0" d="M95.9,23l-.9.8-1.3-1.6-4.9,4.2-1-1.2,4.9-4.2-1.3-1.6.9-.8,3.6,4.3Z"/>
  <path class="st0" d="M98.1,28.6l-1.7,1,1.3,2.2-1.1.6-1.3-2.2-1.8,1,1.5,2.5-1.1.6-2.2-3.9,6.7-3.8,2.2,3.9-1.1.6-1.5-2.5Z"/>
  <path class="st0" d="M102.2,40.6c.3-.3.4-.6.5-.9,0-.3,0-.7,0-1.1-.1-.4-.4-.8-.7-1.1s-.7-.4-1.1-.5c-.4,0-.9,0-1.3.1-.5.2-.9.4-1.2.7-.3.3-.5.7-.6,1.1,0,.4,0,.8.1,1.3.2.6.5,1,.9,1.2.4.3.9.4,1.5.3l-.8-2.5,1.1-.4,1.3,3.9-1.3.4c-.5,0-1.1,0-1.6-.2-.5-.2-1-.5-1.4-.9-.4-.4-.7-.9-1-1.6-.2-.7-.3-1.4-.2-2.1s.4-1.3.9-1.8c.5-.5,1-.9,1.8-1.1s1.4-.3,2.1-.2c.7.1,1.3.4,1.8.9s.9,1,1.1,1.7c.3.8.3,1.6.1,2.3s-.6,1.3-1.3,1.8l-.6-1.7Z"/>
  <path class="st0" d="M106.5,52.4l-5.2-2.1-2.7.3-.2-1.5,2.7-.3,4.7-3.1.2,1.7-3.3,2,3.7,1.3.2,1.7Z"/>
  <path class="st0" d="M98.5,60.6c.2-.2.4-.2.7-.2s.5.2.6.4c.1.2.2.4.2.7,0,.3-.2.5-.4.6s-.4.2-.7.2c-.3,0-.5-.2-.6-.4-.1-.2-.2-.4-.2-.7,0-.3.2-.5.4-.6Z"/>
  <path class="st0" d="M102.6,74l-7.2-2.8.6-1.4,7.2,2.8-.6,1.4Z"/>
  <path class="st0" d="M90.7,80l.8-1.3,6.3-.3-4.5-2.7.8-1.3,6.6,4-.8,1.3-6.3.3,4.5,2.7-.8,1.3-6.6-4Z"/>
  <path class="st0" d="M84.2,87.4l1.1-1.1,6.2,1.1-3.8-3.6,1.1-1.1,5.6,5.3-1.1,1.1-6.2-1.1,3.8,3.7-1.1,1.1-5.6-5.3Z"/>
  <path class="st0" d="M80.5,90.8c.7,0,1.3,0,2,.4s1.1.8,1.6,1.4c.4.6.6,1.3.7,2,0,.7-.1,1.3-.4,2s-.8,1.1-1.4,1.5c-.6.4-1.3.6-1.9.7-.7,0-1.3,0-2-.4-.6-.3-1.1-.8-1.5-1.4-.4-.6-.6-1.3-.7-2,0-.7.1-1.3.4-2,.3-.6.8-1.1,1.4-1.5.6-.4,1.2-.6,1.9-.7ZM78.5,93.5c-.2.4-.2.8-.2,1.2s.2.9.5,1.3c.3.4.6.8,1,1,.4.2.8.3,1.2.3.4,0,.8-.2,1.2-.4.4-.3.7-.6.9-.9.2-.4.3-.8.2-1.2s-.2-.9-.5-1.3c-.3-.4-.6-.8-1-1-.4-.2-.8-.3-1.2-.3-.4,0-.8.2-1.2.4-.4.3-.7.6-.8.9Z"/>
  <path class="st0" d="M68.8,104.5v-8.2s1.8-.6,1.8-.6l5.3,6.2-1.5.6-4.1-5v6.5c.1,0-1.4.6-1.4.6Z"/>
  <path class="st0" d="M59.1,100l3-.4.3-1.5,1.6-.2-1.7,8-1.8.2-3.8-7.3,1.6-.2.7,1.4ZM59.6,101.1l1.5,3,.7-3.3-2.2.3Z"/>
  <path class="st0" d="M48.1,106.1v-1.2c0,0,2.1.1,2.1.1l.4-6.4h1.5c0,.1-.4,6.5-.4,6.5h2c0,.1,0,1.4,0,1.4l-5.6-.4Z"/>
  <path class="st0" d="M42.5,105l1.7-7.5,1.5.3-1.7,7.5-1.5-.3Z"/>
  <path class="st0" d="M39.2,96.5c.4.5.7,1.2.8,1.8,0,.7,0,1.4-.3,2.1-.3.7-.7,1.2-1.3,1.7-.6.4-1.2.7-1.9.7s-1.4,0-2-.3c-.7-.3-1.2-.7-1.6-1.2-.4-.5-.7-1.2-.8-1.8s0-1.4.3-2.1c.3-.7.7-1.3,1.3-1.7.6-.4,1.2-.7,1.9-.7.7,0,1.4,0,2,.3.7.3,1.2.7,1.6,1.2ZM35.8,96.4c-.4,0-.8.2-1.1.5s-.6.7-.8,1.1c-.2.5-.3.9-.2,1.4s.2.8.4,1.1c.2.3.6.6,1,.8s.8.2,1.3.2c.4,0,.8-.2,1.1-.5.3-.3.6-.7.8-1.1.2-.5.3-.9.2-1.4,0-.4-.2-.8-.4-1.1s-.6-.6-1-.8c-.4-.2-.8-.2-1.2-.2Z"/>
  <path class="st0" d="M26,88.5l1.2.9-.2,6.3,3.1-4.3,1.3.9-4.5,6.2-1.2-.9.2-6.3-3.1,4.3-1.3-.9,4.5-6.2Z"/>
  <path class="st0" d="M20.3,82.8c0,.2-.1.5-.3.6-.2.2-.4.2-.7.2-.2,0-.5-.2-.6-.4-.2-.2-.2-.4-.2-.7,0-.2.1-.4.3-.6s.4-.2.7-.2c.2,0,.5.1.6.4.2.2.3.5.2.7Z"/>
  <path class="st0" d="M6.2,73.8l1.1-.5,1.3,2.9,1.8-.8-1-2.2,1.1-.5,1,2.2,2.9-1.4.6,1.4-7,3.2-2-4.3Z"/>
  <path class="st0" d="M11.4,66.4c-.2.7-.5,1.2-1,1.7s-1.1.8-1.9,1c-.7.2-1.4.1-2.1,0-.7-.2-1.2-.6-1.7-1.1s-.8-1.1-.9-1.8c-.2-.7-.1-1.4,0-2s.5-1.2,1-1.7,1.1-.8,1.9-1c.7-.2,1.4-.2,2.1,0,.7.2,1.2.6,1.7,1.1s.8,1.1.9,1.8c.2.7.1,1.4,0,2ZM9.5,63.6c-.3-.3-.6-.5-1.1-.6-.4-.1-.9-.1-1.4,0-.5.1-.9.3-1.2.6-.3.3-.6.6-.7,1-.1.4-.1.8,0,1.3.1.5.3.8.6,1.1.3.3.6.5,1,.6.4.1.9.1,1.4,0,.5-.1.9-.3,1.3-.6.3-.3.6-.6.7-1s.1-.8,0-1.3c-.1-.5-.3-.8-.6-1.1Z"/>
  <path class="st0" d="M10.2,53.6l-3,1.7v.7s3,0,3,0v1.5s-7.7.1-7.7.1v-2.9c0-.6,0-1.1.2-1.5s.5-.7.8-1,.7-.3,1.2-.3c.5,0,1,.1,1.4.4s.7.7.9,1.3l3.1-1.9v1.8ZM6.1,56.1v-1.3c0-.4-.1-.7-.3-.9s-.5-.3-.8-.3c-.4,0-.6.1-.8.3-.2.2-.3.5-.3.9v1.3s2.3,0,2.3,0Z"/>
  <path class="st0" d="M4.5,46l1.9.3.5-2.5,1.2.2-.5,2.5,2,.4.5-2.9,1.2.2-.8,4.4-7.6-1.4.8-4.4,1.2.2-.5,2.9Z"/>
  <path class="st0" d="M12.4,39.9c-.3.3-.7.6-1.1.7-.4.1-.8,0-1.3,0l.6-1.5c.3,0,.6,0,.8,0s.4-.3.6-.7c.1-.3.1-.6,0-.9,0-.3-.3-.4-.5-.5-.2,0-.4,0-.6,0-.2,0-.4.2-.5.4-.2.2-.3.4-.6.7-.3.4-.6.7-.8,1-.2.2-.5.4-.9.5-.4.1-.8,0-1.2,0-.4-.2-.8-.4-1-.7s-.4-.7-.4-1.2c0-.4,0-.9.2-1.4.3-.7.7-1.3,1.2-1.6.5-.3,1.1-.4,1.8-.2l-.6,1.6c-.3,0-.5,0-.7,0-.2.1-.4.4-.5.7-.1.3-.1.5,0,.8,0,.2.3.4.5.5.2,0,.4,0,.6,0,.2,0,.3-.2.5-.4.2-.2.3-.4.6-.7.3-.4.6-.7.8-1s.6-.4.9-.5c.4-.1.8,0,1.2,0,.4.1.7.4,1,.7.3.3.4.7.5,1.2,0,.5,0,1-.2,1.5-.2.5-.4.9-.8,1.3Z"/>
  <path class="st0" d="M9.7,28.1l6.7,3.8-.8,1.3-6.7-3.8.8-1.3Z"/>
  <path class="st0" d="M17.4,21.4c-.4,0-.7,0-1,0-.3.1-.6.4-.9.7-.3.4-.5.7-.5,1.1,0,.4,0,.8.2,1.2.2.4.4.8.8,1.1.4.3.8.5,1.2.6.4,0,.8,0,1.2,0,.4-.1.7-.4,1-.8.4-.5.6-.9.6-1.4,0-.5-.2-1-.5-1.4l-1.7,2-.9-.8,2.6-3.2,1,.9c.3.4.6.9.7,1.5s.1,1.1,0,1.7c-.1.6-.4,1.1-.8,1.6-.5.6-1,1-1.7,1.2-.6.2-1.3.3-2,.2-.7-.1-1.3-.4-1.9-.9-.6-.5-1-1-1.2-1.7-.2-.6-.3-1.3-.2-2,.1-.7.4-1.3.9-1.9.6-.7,1.2-1.1,1.9-1.3s1.5-.2,2.2.1l-1.1,1.4Z"/>
  <path class="st0" d="M30.2,17.3l-1.2.9-6-2.1,3.2,4.2-1.2.9-4.7-6.1,1.2-.9,6,2.1-3.2-4.2,1.2-.9,4.7,6.1Z"/>
  <path class="st0" d="M34.4,6.4l.5,1.1-1.8.9,2.8,5.8-1.4.7-2.8-5.8-1.8.9-.5-1.1,5.1-2.4Z"/>
  <path class="st0" d="M45.1,11c-.2-.1-.3-.3-.4-.6s0-.5.1-.7c.1-.2.4-.3.6-.4.3,0,.5,0,.7.1.2.1.3.3.4.6,0,.3,0,.5-.1.7-.1.2-.3.3-.6.4-.3,0-.5,0-.7-.1Z"/>
</svg>