<?xml version="1.0" encoding="UTF-8"?>
<svg id="Layer_1" xmlns="http://www.w3.org/2000/svg" version="1.1" viewBox="0 0 60 60">
  <!-- Generator: Adobe Illustrator 29.0.1, SVG Export Plug-In . SVG Version: 2.1.0 Build 192)  -->
  <defs>
    <style>
      .st0 {
        fill: #074c02;
      }
    </style>
  </defs>
  <path class="st0" d="M1.9,21.1c0-.3.3-1,.4-1.3.7-1.6,1.9-2.5,3.4-3.2C3.7,6.3,17.3,1.2,22.6,10.3c3.3-.8,6.5.6,8.3,3.4l4.2.8,10.8-10.7c7.2-5.9,16.3,3.3,10.3,10.4l-10.6,10.8c1,3.4,1.2,7.2-.3,10.5,5.5-.2,8.7,6.2,5.1,10.5s-8.4,2.8-10.5-1.1-.5-1.4-.8-2.1c-.6.7-2.3,2.9-2.3,3.7s.4.6.4.9c.3.9.1,1.9-.6,2.6,1,1.2.9,3-.4,4s-.8.3-.9.5-.4.8-.5,1.1c-.8,1.3-2.4,2.4-3.9,2.6h-1.6c-1.7-.4-2.9-1.2-3.9-2.6s-.4-1-.5-1.1-.7-.3-.9-.5c-1.3-1-1.4-2.7-.4-4-.5-.6-.7-1.4-.7-2.2l-5.8,5.8-12,4.7h-1c-1-.4-1.6-.9-1.9-1.9v-1l4.7-12,8-8.1c-.9-2.5-1.1-5.1-.7-7.7h-7.3c-.2,0-1.1-.3-1.4-.4-1.8-.7-2.9-2.4-3.3-4.2,0-.5,0-1.1,0-1.6ZM50.1,3.8c-1.8.2-3.2,1.3-4.3,2.7l7.7,7.7c.9-.8,1.9-1.7,2.3-2.9,1.4-3.9-1.6-7.9-5.8-7.5ZM14.6,20c0-1.7,1.2-3,2.7-3.6.3-2.3,1.6-4.3,3.6-5.4-4.4-7.2-15.1-3-13.4,5.2h.1c2.8.3,5.1,2.7,5.1,5.6h-1.8c0-3.6-4.8-5-6.7-2s0,5.4,2.9,5.6h25c2.3-.5,3.2-3.3,1.3-4.8s-4.4-.2-4.4,2.1h-1.8c0-1.2.6-2.5,1.5-3.3s1.1-.4,1.2-1.6c.3-3.4-2.6-6.2-5.9-5.9s-4.7,2.3-4.8,4.7c1.5.4,2.6,1.9,2.6,3.5h-1.8c-.1-2.4-3.5-2.4-3.6,0h-1.8ZM44.5,7.8l-7.4,7.4c1.2.8,2.6,1.4,3.6,2.5h.3s5.4-5.3,5.4-5.3c.2.3,1.3,1.1,1.2,1.4l-5.3,5.4,2.6,3.8,7.4-7.5-7.7-7.7ZM30.9,45.4h4.1c2.2-5.3,8.4-7.5,9.3-13.6,1.2-7.9-4.9-15.5-12.8-16.2.2.8.4,1.8.1,2.6,3.9,0,6.1,4.3,3.6,7.4s-2.1,1.6-2.9,1.6h-5.2v3c0,.3.6.6.8.6,2.4.3,5.5-.3,7.8,0s3,5.1-.3,5.4-6.4-.3-9.3,0-1.2,1.7,0,1.8,2.8-.5,4,1.1.6.9.6,1.1v5ZM25.5,27.3h-9.7c-.3,2-.4,3.8.1,5.7,1.3,5.2,7.1,7.5,9.1,12.4h4.1v-4.8c0-.9-2.4-.6-3-.6-3.2-.3-3.2-5,0-5.4h9.6c1-.4.9-1.7-.2-1.8-2.4-.3-5.5.3-7.8,0s-1.5-.7-1.9-1.4-.3-.8-.3-.8v-3.2ZM15.5,36.8l-7.2,7.3-2.8,7v.3c0,0,3.3,3.2,3.3,3.2l7.2-2.8,6.7-6.7c0-.1,0-.2,0-.3-.2-.5-2.5-3.3-2.8-3.2l-7.1,7.1c-.3.2-1.4-1-1.4-1.1l7.1-7.3-3-3.4ZM44.8,37.3c-1.2.2-1.7,1.2-2.4,2s-1.7,1.1-1.5,2.9c.3,4,5.5,5.6,8,2.5,2.6-3.2,0-7.9-4.1-7.4ZM25.2,47.3c-.9.3-.9,1.6,0,1.8,2.9-.2,6.4.3,9.3,0s1.1-1.7.1-1.8h-9.5ZM25.2,50.9c-.9.3-.9,1.6,0,1.8,2.9-.2,6.4.3,9.3,0s1.1-1.7.1-1.8h-9.5ZM6.9,55.4l-2.3-2.3c0,.7-1.6,3-.4,3.2s2-.8,2.7-.9ZM33.2,54.5h-6.3c1.4,2.4,5,2.4,6.3,0Z"/>
  <path class="st0" d="M44.9,39.1c3.7-.6,4.3,5,.9,5.4s-4.2-4.9-.9-5.4ZM45.1,40.9c-1,.2-.8,2.1.5,1.8s.8-2.1-.5-1.8Z"/>
</svg>