<?xml version="1.0" encoding="UTF-8"?>
<svg id="Layer_1" xmlns="http://www.w3.org/2000/svg" version="1.1" viewBox="0 0 60 60">
  <!-- Generator: Adobe Illustrator 29.0.1, SVG Export Plug-In . SVG Version: 2.1.0 Build 192)  -->
  <defs>
    <style>
      .st0 {
        fill: #074c02;
      }
    </style>
  </defs>
  <path class="st0" d="M52.1,28.7c-.7-1.1-4.1-4.5-4.2-5.1,0-.4.1-1.4.1-2-.4-9-6.7-16.9-15.5-19.1C17.4-1.2,3.6,12.5,7.8,27.6c1.3,4.6,4.6,8.6,5.4,12.9,1,5.2.4,10.6.4,15.8,3,3.4,7.7,2.4,10.1-1.1,3.3-4.7,2.6-12.7,2.4-18.2,0-.3-.1-.5-.2-.7,6.9-4.7,9.5-14.2,9.9-22.1,0-.7.1-2.7,0-3.2-.3-1.2-3-.7-4-.5-12.9,2.1-18.8,16.4-8.1,25.4.2,4.9,1.6,17-3.7,19.7-1,.5-2.6.8-3.6,0-.8-.6-.3-.8-.3-1.5,0-4.6.3-10.2-.7-14.7-.8-3.7-3.5-7.1-4.8-10.8C6,15.6,16,3.2,29.5,4.4c8.1.7,15.5,8,16.1,16.2,0,1.1-.2,3,0,3.9.1.4.9,1.2,1.2,1.6,1.1,1.4,2.4,2.5,3.4,4,0,.7-2.6,2.1-3,2.7-.2.3-1.4,2.4-1,4.9.7,3.6,4.3,4.4,4,6.6-.3,2-3.4,3.1-3.8,3.2-2.9,1-4.3-.6-7.7.4-.9.3-2.1.7-2.9,1.7-1.5,1.9-1.2,5.2.6,8.5.5,0,1.4,0,1.9-.4,1.4-1.4-1.5-4.8-.4-6.5,1.4-2.1,6.3,1.1,11-1.4,1.9-1,4.3-3.3,4.1-5.5-.2-2.1-2.7-2.4-3.9-5.9-.2-.7-.9-2.7,0-4,.4-.5.7-.4,1.7-1.3,1.5-1.3,2.5-2.3,1.3-4.2ZM23.6,32.3c-7.7-8.3,0-19,9.7-19.8.3,0,.2.6.2.8,0,1.5-.3,3.4-.5,4.9-.8,5.5-2.8,11.3-7,15,0-2.8.3-5.6,1.2-8.3.3-1,1.6-2.9.8-3.7-2-2-3.4,4.1-3.6,5.2-.4,1.9-.6,3.9-.7,5.9Z"/>
</svg>