<?xml version="1.0" encoding="UTF-8"?>
<svg id="Layer_1" xmlns="http://www.w3.org/2000/svg" version="1.1" viewBox="0 0 60 60">
  <!-- Generator: Adobe Illustrator 29.0.1, SVG Export Plug-In . SVG Version: 2.1.0 Build 192)  -->
  <defs>
    <style>
      .st0 {
        fill: #074c02;
      }
    </style>
  </defs>
  <g id="Tp6ONJ.tif">
    <g>
      <path class="st0" d="M-22.5,36.2v2.2c-.6,1.2-4.2,1.3-4.6,1.9s0,4.5-.2,5.8c-.6,3.8-4.5,4.7-7.8,4.3v8c0,.3-1.1,1.3-1.3,1.7h-25.7c-1.2-1.2-.3-3.2-2.4-3.4s-1.9.8-2.6.4-2.2-3.3-2.2-3.8c-.2-1.6,1.4-1.7,1.6-2.8s-1.5-1.8-1.6-3.1,1.6-3.8,2.2-4.1c1-.5,2,.5,2.8.3s1.5-1.1,1.4-1.9-3.1-4.2-3.7-5.3c-6.6-11.5-3.3-27.6,10.1-32.1,15.2-5.1,28.9,2.9,30.1,19.2s-.3,4.2,0,5.9,2.2,4.5,2.8,5.7.4.9.9,1.1ZM-50.1,43.4c.2-.3,0-5.9,0-6.9s-2.9.5-3.6-.9,0-2.1-.2-2.9-.8-.4-1-.9c-.4-.9-.2-1.9-.9-3.2-1.8-3.2-3.8-3.6-4-8.2-.7-15.5,23.3-15.3,21.7.9s-2.8,4.8-4.1,7.5-.4,2.3-.8,3.3-.7.3-.7.6c-.2.8.2,1.5-.2,2.5-.8,2.1-3.8,1.1-3.8,1.3v7.7c0,.6-2.2,1.4-2.4,1.7-.3.5.3,1.1.1,1.7s-1.3,1-1.5,1.7c-.7,2.4,1.5,2.7,1.5,3.7s-1.6,3.4-1.9,3.7c-.9,1.1-2.3,0-3.3,0s-1.4.6-1.1,1.2h19.2v-9.3s.4-.5.5-.5h5c0,0,1.4-.8,1.6-1,1.8-1.9,0-6.3,1-8.2s3.1-1.3,4.1-1.6.6.2.4-.5c-.6-2.1-3.3-5-3.7-7s0-6.1-.4-9c-2-12.9-13.2-18.3-25.3-15.1s-16.9,19.2-9.9,30.2,2.7,3.8,3,4c1,.5,2.9-.2,3.8.3s.5,2.3,1.1,2.7c1.3.8,2.8-.3,3.7,0s.4.9.7.9,1.7-.6,1.7-.7ZM-50.1,30.2v-5.5c0-.4-3.7-3.4-2.8-4.8s3.3,2.1,3.9,2.8c1-.7,1.8-3.3,3.1-3.2,2.8.2-2,5.1-2,5.5v5.2c.6-.1,2.4.2,2.8,0s.9-2.5,1.4-3.2c1.3-2.1,3-2.8,3.4-5.7,1.8-13.5-18.7-13.4-17.2-.3.4,3.3,2.4,4.2,3.8,6.6s.8,2.6.9,2.7c.2.2,2.2,0,2.8,0ZM-46,32.7h-5.7v1.6h5.7v-1.6ZM-53.3,45.7c-.5-.3-1.6.4-2.7,0s-2.1-1.2-2.3-1.5c-.7-1,.1-2.1-2-1.8s-.4,1.1-.9,1.8-2.6,1.6-3,1.6c-.8,0-2.6-.9-2.6,1.2s1,1,1.2,1.6.2,2.7,0,3.2-1.9,1.2-.6,2.5,1.7-.2,2.9.2,1.9,1.1,2,1.2c.7.8.2,1.9,1.1,2.1,2.2.3,1.4-.9,2.2-1.9s1.8-1.3,2.1-1.4c1.1-.4,2,.2,2.5,0,1.8-.9,0-1.9-.2-2.4s-.3-3.2,0-3.9,1.1-1,1.1-1.3-.5-1.3-.6-1.4Z"/>
      <path class="st0" d="M-59.9,46c5.9-.2,5.5,9.3-.9,8s-3.7-7.9.9-8ZM-58.3,48.8c-1.7-1.7-4.7,1.2-2.6,2.8s4.1-1.3,2.6-2.8Z"/>
    </g>
  </g>
  <g>
    <path class="st0" d="M-144.5,27.4c0-.3.3-1,.4-1.3.7-1.6,1.9-2.5,3.4-3.2-2-10.3,11.5-15.3,16.8-6.3,3.3-.8,6.5.6,8.3,3.4l4.2.8,10.8-10.7c7.2-5.9,16.3,3.3,10.3,10.4l-10.6,10.8c1,3.4,1.2,7.2-.3,10.5,5.5-.2,8.7,6.2,5.1,10.5s-8.4,2.8-10.5-1.1-.5-1.4-.8-2.1c-.6.7-2.3,2.9-2.3,3.7s.4.6.4.9c.3.9.1,1.9-.6,2.6,1,1.2.9,3-.4,4s-.8.3-.9.5-.4.8-.5,1.1c-.8,1.3-2.4,2.4-3.9,2.6h-1.6c-1.7-.4-2.9-1.2-3.9-2.6s-.4-1-.5-1.1-.7-.3-.9-.5c-1.3-1-1.4-2.7-.4-4-.5-.6-.7-1.4-.7-2.2l-5.8,5.8-12,4.7h-1c-1-.4-1.6-.9-1.9-1.9v-1l4.7-12,8-8.1c-.9-2.5-1.1-5.1-.7-7.7h-7.3c-.2,0-1.1-.3-1.4-.4-1.8-.7-2.9-2.4-3.3-4.2,0-.5,0-1.1,0-1.6ZM-96.3,10.1c-1.8.2-3.2,1.3-4.3,2.7l7.7,7.7c.9-.8,1.9-1.7,2.3-2.9,1.4-3.9-1.6-7.9-5.8-7.5ZM-131.8,26.4c0-1.7,1.2-3,2.7-3.6.3-2.3,1.6-4.3,3.6-5.4-4.4-7.2-15.1-3-13.4,5.2h.1c2.8.3,5.1,2.7,5.1,5.6h-1.8c0-3.6-4.8-5-6.7-2s0,5.4,2.9,5.6h25c2.3-.5,3.2-3.3,1.3-4.8s-4.4-.2-4.4,2.1h-1.8c0-1.2.6-2.5,1.5-3.3s1.1-.4,1.2-1.6c.3-3.4-2.6-6.2-5.9-5.9s-4.7,2.3-4.8,4.7c1.5.4,2.6,1.9,2.6,3.5h-1.8c-.1-2.4-3.5-2.4-3.6,0h-1.8ZM-102,14.2l-7.4,7.4c1.2.8,2.6,1.4,3.6,2.5h.3s5.4-5.3,5.4-5.3c.2.3,1.3,1.1,1.2,1.4l-5.3,5.4,2.6,3.8,7.4-7.5-7.7-7.7ZM-115.5,51.8h4.1c2.2-5.3,8.4-7.5,9.3-13.6,1.2-7.9-4.9-15.5-12.8-16.2.2.8.4,1.8.1,2.6,3.9,0,6.1,4.3,3.6,7.4s-2.1,1.6-2.9,1.6h-5.2v3c0,.3.6.6.8.6,2.4.3,5.5-.3,7.8,0s3,5.1-.3,5.4-6.4-.3-9.3,0-1.2,1.7,0,1.8,2.8-.5,4,1.1.6.9.6,1.1v5ZM-121,33.6h-9.7c-.3,2-.4,3.8.1,5.7,1.3,5.2,7.1,7.5,9.1,12.4h4.1v-4.8c0-.9-2.4-.6-3-.6-3.2-.3-3.2-5,0-5.4h9.6c1-.4.9-1.7-.2-1.8-2.4-.3-5.5.3-7.8,0s-1.5-.7-1.9-1.4-.3-.8-.3-.8v-3.2ZM-131,43.2l-7.2,7.3-2.8,7v.3c0,0,3.3,3.2,3.3,3.2l7.2-2.8,6.7-6.7c0-.1,0-.2,0-.3-.2-.5-2.5-3.3-2.8-3.2l-7.1,7.1c-.3.2-1.4-1-1.4-1.1l7.1-7.3-3-3.4ZM-101.6,43.6c-1.2.2-1.7,1.2-2.4,2s-1.7,1.1-1.5,2.9c.3,4,5.5,5.6,8,2.5,2.6-3.2,0-7.9-4.1-7.4ZM-121.2,53.6c-.9.3-.9,1.6,0,1.8,2.9-.2,6.4.3,9.3,0s1.1-1.7.1-1.8h-9.5ZM-121.2,57.2c-.9.3-.9,1.6,0,1.8,2.9-.2,6.4.3,9.3,0s1.1-1.7.1-1.8h-9.5ZM-139.5,61.7l-2.3-2.3c0,.7-1.6,3-.4,3.2s2-.8,2.7-.9ZM-113.3,60.8h-6.3c1.4,2.4,5,2.4,6.3,0Z"/>
    <path class="st0" d="M-101.5,45.5c3.7-.6,4.3,5,.9,5.4s-4.2-4.9-.9-5.4ZM-101.3,47.3c-1,.2-.8,2.1.5,1.8s.8-2.1-.5-1.8Z"/>
  </g>
  <path class="st0" d="M-.4-29.7c-.7-1.1-4.1-4.5-4.2-5.1,0-.4.1-1.4.1-2-.4-9-6.7-16.9-15.5-19.1-15.1-3.7-28.9,10-24.7,25,1.3,4.6,4.6,8.6,5.4,12.9,1,5.2.4,10.6.4,15.8,3,3.4,7.7,2.4,10.1-1.1,3.3-4.7,2.6-12.7,2.4-18.2,0-.3-.1-.5-.2-.7,6.9-4.7,9.5-14.2,9.9-22.1,0-.7.1-2.7,0-3.2-.3-1.2-3-.7-4-.5-12.9,2.1-18.8,16.4-8.1,25.4.2,4.9,1.6,17-3.7,19.7-1,.5-2.6.8-3.6,0-.8-.6-.3-.8-.3-1.5,0-4.6.3-10.2-.7-14.7-.8-3.7-3.5-7.1-4.8-10.8-4.5-12.9,5.5-25.3,18.9-24.1,8.1.7,15.5,8,16.1,16.2,0,1.1-.2,3,0,3.9.1.4.9,1.2,1.2,1.6,1.1,1.4,2.4,2.5,3.4,4,0,.7-2.6,2.1-3,2.7-.2.3-1.4,2.4-1,4.9.7,3.6,4.3,4.4,4,6.6-.3,2-3.4,3.1-3.8,3.2-2.9,1-4.3-.6-7.7.4-.9.3-2.1.7-2.9,1.7-1.5,1.9-1.2,5.2.6,8.5.5,0,1.4,0,1.9-.4,1.4-1.4-1.5-4.8-.4-6.5,1.4-2.1,6.3,1.1,11-1.4C-1.6-9.8.7-12.1.5-14.3c-.2-2.1-2.7-2.4-3.9-5.9-.2-.7-.9-2.7,0-4,.4-.5.7-.4,1.7-1.3,1.5-1.3,2.5-2.3,1.3-4.2ZM-28.8-26.1c-7.7-8.3,0-19,9.7-19.8.3,0,.2.6.2.8,0,1.5-.3,3.4-.5,4.9-.8,5.5-2.8,11.3-7,15,0-2.8.3-5.6,1.2-8.3.3-1,1.6-2.9.8-3.7-2-2-3.4,4.1-3.6,5.2-.4,1.9-.6,3.9-.7,5.9Z"/>
  <g id="hbxwjk.tif">
    <g>
      <path class="st0" d="M47.2,17.7c.4.2.7,0,1,0s.4,0,.6,0c1.3,0,3.1-.2,4.3,0s.9.5.9.9,0,1,0,1.4c0,3.4,0,6.8,0,10.2,0,6.9.2,13.8,0,20.7s0,1.7-.1,2.1-.6.8-.9.8c-1,.2-2.2,0-3.2,0-13.6.1-27.2,0-40.8,0s-2.4.2-3.3,0-1.3-2.1-.2-2.5c1.5-.1,2.9-.1,4.4,0v-5.4c0-1.7,0-3.3,0-5s-.4-2.5,1.4-2.6,3.5,0,5.3,0,2.9,0,4.3,0,1.8,0,2.7-.1c.3-1,0-2.1,0-3.2s0-1.7,0-2.3c0-1.7,2.5-1.7,2.7-.2s0,1.6,0,2.4c0,4.4,0,8.9,0,13.3s0,2.1,0,3.2h11.2s-.1-24.2-.1-24.2c-.8,0-1.5,0-2.3,0-1.6,0-3.2,0-4.9,0s-1.1.1-2.5.8c-8.1,3.9-16.6,1.2-21.7-6s-1.3-1.8-1.4-2.2c-.2-1.1.8-2.3,1.4-3.1,6.9-9.9,20.2-10.4,27.7-.9s1.8,2.5,2,3c.3,1.1-.8,2.5-1.4,3.3s-1.3,1.6-2,2.4h4.9c.2-.1.2-.5.3-.7.1-1.4-.1-3.2,0-4.6s.4-1.6,1.4-1.6c1.5,0,3.3.2,4.8,0s.5,0,.7-.1v-4.2c0,0-.3,0-.5,0-1.7,0-3.5,0-5.2,0s-2.7.2-3.2-.2c-1.5-1.1.7-3,1.1-4.1-.5-1.1-1.9-2.3-1.6-3.5s.6-.7,1-.8c1.4-.2,3.2,0,4.6,0s2.5-.1,3.7,0,2.6-.1,2.8,1.1,0,2.3,0,3.5c0,2.5,0,5,0,7.5s-.2.6,0,.9ZM44.6,7.4h-5.7c.2.6.8,1,.8,1.7s-.6,1.1-.8,1.8h5.7c0-.1,0-3.5,0-3.5ZM20.2,11.8c-4.2,0-8,2.2-10.7,5.3s-1.7,2.1-1.7,2.5,1.4,2.1,1.7,2.5c6,6.9,15.9,6.9,21.9,0s1.3-1.6,1.5-2.1-.3-1.2-.7-1.7c-2.7-3.9-7.3-6.5-12.1-6.4ZM51.5,20.4h-11.2s0,31.1,0,31.1c2.1,0,4.3,0,6.4,0s2.4,0,3.6,0,1,.3,1.2-.2v-30.8ZM23.8,41.1h-11.1s0,10.4,0,10.4h11.1s0-10.4,0-10.4Z"/>
      <path class="st0" d="M19.4,12.7c7.8-.9,11.1,9.2,4.6,12.9-5.8,3.4-12.6-2.7-9.8-8.9s3.1-3.8,5.3-4ZM20.3,15.2c-6.1.2-5,9.8,1.1,8.5s4-8.6-1.1-8.5Z"/>
    </g>
  </g>
</svg>