<?xml version="1.0" encoding="UTF-8"?>
<svg id="Layer_1" xmlns="http://www.w3.org/2000/svg" version="1.1" viewBox="0 0 60 60">
  <!-- Generator: Adobe Illustrator 29.0.1, SVG Export Plug-In . SVG Version: 2.1.0 Build 192)  -->
  <defs>
    <style>
      .st0 {
        fill: #074c02;
      }
    </style>
  </defs>
  <g id="Tp6ONJ.tif">
    <g>
      <path class="st0" d="M-22.5,36.2v2.2c-.6,1.2-4.2,1.3-4.6,1.9s0,4.5-.2,5.8c-.6,3.8-4.5,4.7-7.8,4.3v8c0,.3-1.1,1.3-1.3,1.7h-25.7c-1.2-1.2-.3-3.2-2.4-3.4s-1.9.8-2.6.4-2.2-3.3-2.2-3.8c-.2-1.6,1.4-1.7,1.6-2.8s-1.5-1.8-1.6-3.1,1.6-3.8,2.2-4.1c1-.5,2,.5,2.8.3s1.5-1.1,1.4-1.9-3.1-4.2-3.7-5.3c-6.6-11.5-3.3-27.6,10.1-32.1,15.2-5.1,28.9,2.9,30.1,19.2s-.3,4.2,0,5.9,2.2,4.5,2.8,5.7.4.9.9,1.1ZM-50.1,43.4c.2-.3,0-5.9,0-6.9s-2.9.5-3.6-.9,0-2.1-.2-2.9-.8-.4-1-.9c-.4-.9-.2-1.9-.9-3.2-1.8-3.2-3.8-3.6-4-8.2-.7-15.5,23.3-15.3,21.7.9s-2.8,4.8-4.1,7.5-.4,2.3-.8,3.3-.7.3-.7.6c-.2.8.2,1.5-.2,2.5-.8,2.1-3.8,1.1-3.8,1.3v7.7c0,.6-2.2,1.4-2.4,1.7-.3.5.3,1.1.1,1.7s-1.3,1-1.5,1.7c-.7,2.4,1.5,2.7,1.5,3.7s-1.6,3.4-1.9,3.7c-.9,1.1-2.3,0-3.3,0s-1.4.6-1.1,1.2h19.2v-9.3s.4-.5.5-.5h5c0,0,1.4-.8,1.6-1,1.8-1.9,0-6.3,1-8.2s3.1-1.3,4.1-1.6.6.2.4-.5c-.6-2.1-3.3-5-3.7-7s0-6.1-.4-9c-2-12.9-13.2-18.3-25.3-15.1s-16.9,19.2-9.9,30.2,2.7,3.8,3,4c1,.5,2.9-.2,3.8.3s.5,2.3,1.1,2.7c1.3.8,2.8-.3,3.7,0s.4.9.7.9,1.7-.6,1.7-.7ZM-50.1,30.2v-5.5c0-.4-3.7-3.4-2.8-4.8s3.3,2.1,3.9,2.8c1-.7,1.8-3.3,3.1-3.2,2.8.2-2,5.1-2,5.5v5.2c.6-.1,2.4.2,2.8,0s.9-2.5,1.4-3.2c1.3-2.1,3-2.8,3.4-5.7,1.8-13.5-18.7-13.4-17.2-.3.4,3.3,2.4,4.2,3.8,6.6s.8,2.6.9,2.7c.2.2,2.2,0,2.8,0ZM-46,32.7h-5.7v1.6h5.7v-1.6ZM-53.3,45.7c-.5-.3-1.6.4-2.7,0s-2.1-1.2-2.3-1.5c-.7-1,.1-2.1-2-1.8s-.4,1.1-.9,1.8-2.6,1.6-3,1.6c-.8,0-2.6-.9-2.6,1.2s1,1,1.2,1.6.2,2.7,0,3.2-1.9,1.2-.6,2.5,1.7-.2,2.9.2,1.9,1.1,2,1.2c.7.8.2,1.9,1.1,2.1,2.2.3,1.4-.9,2.2-1.9s1.8-1.3,2.1-1.4c1.1-.4,2,.2,2.5,0,1.8-.9,0-1.9-.2-2.4s-.3-3.2,0-3.9,1.1-1,1.1-1.3-.5-1.3-.6-1.4Z"/>
      <path class="st0" d="M-59.9,46c5.9-.2,5.5,9.3-.9,8s-3.7-7.9.9-8ZM-58.3,48.8c-1.7-1.7-4.7,1.2-2.6,2.8s4.1-1.3,2.6-2.8Z"/>
    </g>
  </g>
  <g>
    <path class="st0" d="M-144.5,27.4c0-.3.3-1,.4-1.3.7-1.6,1.9-2.5,3.4-3.2-2-10.3,11.5-15.3,16.8-6.3,3.3-.8,6.5.6,8.3,3.4l4.2.8,10.8-10.7c7.2-5.9,16.3,3.3,10.3,10.4l-10.6,10.8c1,3.4,1.2,7.2-.3,10.5,5.5-.2,8.7,6.2,5.1,10.5s-8.4,2.8-10.5-1.1-.5-1.4-.8-2.1c-.6.7-2.3,2.9-2.3,3.7s.4.6.4.9c.3.9.1,1.9-.6,2.6,1,1.2.9,3-.4,4s-.8.3-.9.5-.4.8-.5,1.1c-.8,1.3-2.4,2.4-3.9,2.6h-1.6c-1.7-.4-2.9-1.2-3.9-2.6s-.4-1-.5-1.1-.7-.3-.9-.5c-1.3-1-1.4-2.7-.4-4-.5-.6-.7-1.4-.7-2.2l-5.8,5.8-12,4.7h-1c-1-.4-1.6-.9-1.9-1.9v-1l4.7-12,8-8.1c-.9-2.5-1.1-5.1-.7-7.7h-7.3c-.2,0-1.1-.3-1.4-.4-1.8-.7-2.9-2.4-3.3-4.2,0-.5,0-1.1,0-1.6ZM-96.3,10.1c-1.8.2-3.2,1.3-4.3,2.7l7.7,7.7c.9-.8,1.9-1.7,2.3-2.9,1.4-3.9-1.6-7.9-5.8-7.5ZM-131.8,26.4c0-1.7,1.2-3,2.7-3.6.3-2.3,1.6-4.3,3.6-5.4-4.4-7.2-15.1-3-13.4,5.2h.1c2.8.3,5.1,2.7,5.1,5.6h-1.8c0-3.6-4.8-5-6.7-2s0,5.4,2.9,5.6h25c2.3-.5,3.2-3.3,1.3-4.8s-4.4-.2-4.4,2.1h-1.8c0-1.2.6-2.5,1.5-3.3s1.1-.4,1.2-1.6c.3-3.4-2.6-6.2-5.9-5.9s-4.7,2.3-4.8,4.7c1.5.4,2.6,1.9,2.6,3.5h-1.8c-.1-2.4-3.5-2.4-3.6,0h-1.8ZM-102,14.2l-7.4,7.4c1.2.8,2.6,1.4,3.6,2.5h.3s5.4-5.3,5.4-5.3c.2.3,1.3,1.1,1.2,1.4l-5.3,5.4,2.6,3.8,7.4-7.5-7.7-7.7ZM-115.5,51.8h4.1c2.2-5.3,8.4-7.5,9.3-13.6,1.2-7.9-4.9-15.5-12.8-16.2.2.8.4,1.8.1,2.6,3.9,0,6.1,4.3,3.6,7.4s-2.1,1.6-2.9,1.6h-5.2v3c0,.3.6.6.8.6,2.4.3,5.5-.3,7.8,0s3,5.1-.3,5.4-6.4-.3-9.3,0-1.2,1.7,0,1.8,2.8-.5,4,1.1.6.9.6,1.1v5ZM-121,33.6h-9.7c-.3,2-.4,3.8.1,5.7,1.3,5.2,7.1,7.5,9.1,12.4h4.1v-4.8c0-.9-2.4-.6-3-.6-3.2-.3-3.2-5,0-5.4h9.6c1-.4.9-1.7-.2-1.8-2.4-.3-5.5.3-7.8,0s-1.5-.7-1.9-1.4-.3-.8-.3-.8v-3.2ZM-131,43.2l-7.2,7.3-2.8,7v.3c0,0,3.3,3.2,3.3,3.2l7.2-2.8,6.7-6.7c0-.1,0-.2,0-.3-.2-.5-2.5-3.3-2.8-3.2l-7.1,7.1c-.3.2-1.4-1-1.4-1.1l7.1-7.3-3-3.4ZM-101.6,43.6c-1.2.2-1.7,1.2-2.4,2s-1.7,1.1-1.5,2.9c.3,4,5.5,5.6,8,2.5,2.6-3.2,0-7.9-4.1-7.4ZM-121.2,53.6c-.9.3-.9,1.6,0,1.8,2.9-.2,6.4.3,9.3,0s1.1-1.7.1-1.8h-9.5ZM-121.2,57.2c-.9.3-.9,1.6,0,1.8,2.9-.2,6.4.3,9.3,0s1.1-1.7.1-1.8h-9.5ZM-139.5,61.7l-2.3-2.3c0,.7-1.6,3-.4,3.2s2-.8,2.7-.9ZM-113.3,60.8h-6.3c1.4,2.4,5,2.4,6.3,0Z"/>
    <path class="st0" d="M-101.5,45.5c3.7-.6,4.3,5,.9,5.4s-4.2-4.9-.9-5.4ZM-101.3,47.3c-1,.2-.8,2.1.5,1.8s.8-2.1-.5-1.8Z"/>
  </g>
  <path class="st0" d="M-.4-29.7c-.7-1.1-4.1-4.5-4.2-5.1,0-.4.1-1.4.1-2-.4-9-6.7-16.9-15.5-19.1-15.1-3.7-28.9,10-24.7,25,1.3,4.6,4.6,8.6,5.4,12.9,1,5.2.4,10.6.4,15.8,3,3.4,7.7,2.4,10.1-1.1,3.3-4.7,2.6-12.7,2.4-18.2,0-.3-.1-.5-.2-.7,6.9-4.7,9.5-14.2,9.9-22.1,0-.7.1-2.7,0-3.2-.3-1.2-3-.7-4-.5-12.9,2.1-18.8,16.4-8.1,25.4.2,4.9,1.6,17-3.7,19.7-1,.5-2.6.8-3.6,0-.8-.6-.3-.8-.3-1.5,0-4.6.3-10.2-.7-14.7-.8-3.7-3.5-7.1-4.8-10.8-4.5-12.9,5.5-25.3,18.9-24.1,8.1.7,15.5,8,16.1,16.2,0,1.1-.2,3,0,3.9.1.4.9,1.2,1.2,1.6,1.1,1.4,2.4,2.5,3.4,4,0,.7-2.6,2.1-3,2.7-.2.3-1.4,2.4-1,4.9.7,3.6,4.3,4.4,4,6.6-.3,2-3.4,3.1-3.8,3.2-2.9,1-4.3-.6-7.7.4-.9.3-2.1.7-2.9,1.7-1.5,1.9-1.2,5.2.6,8.5.5,0,1.4,0,1.9-.4,1.4-1.4-1.5-4.8-.4-6.5,1.4-2.1,6.3,1.1,11-1.4C-1.6-9.8.7-12.1.5-14.3c-.2-2.1-2.7-2.4-3.9-5.9-.2-.7-.9-2.7,0-4,.4-.5.7-.4,1.7-1.3,1.5-1.3,2.5-2.3,1.3-4.2ZM-28.8-26.1c-7.7-8.3,0-19,9.7-19.8.3,0,.2.6.2.8,0,1.5-.3,3.4-.5,4.9-.8,5.5-2.8,11.3-7,15,0-2.8.3-5.6,1.2-8.3.3-1,1.6-2.9.8-3.7-2-2-3.4,4.1-3.6,5.2-.4,1.9-.6,3.9-.7,5.9Z"/>
  <g id="hbxwjk.tif">
    <g>
      <path class="st0" d="M-90-47.3c.4.2.7,0,1,0s.4,0,.6,0c1.3,0,3.1-.2,4.3,0s.9.5.9.9,0,1,0,1.4c0,3.4,0,6.8,0,10.2,0,6.9.2,13.8,0,20.7s0,1.7-.1,2.1-.6.8-.9.8c-1,.2-2.2,0-3.2,0-13.6.1-27.2,0-40.8,0s-2.4.2-3.3,0-1.3-2.1-.2-2.5c1.5-.1,2.9-.1,4.4,0v-5.4c0-1.7,0-3.3,0-5s-.4-2.5,1.4-2.6,3.5,0,5.3,0,2.9,0,4.3,0,1.8,0,2.7-.1c.3-1,0-2.1,0-3.2s0-1.7,0-2.3c0-1.7,2.5-1.7,2.7-.2s0,1.6,0,2.4c0,4.4,0,8.9,0,13.3s0,2.1,0,3.2h11.2s-.1-24.2-.1-24.2c-.8,0-1.5,0-2.3,0-1.6,0-3.2,0-4.9,0s-1.1.1-2.5.8c-8.1,3.9-16.6,1.2-21.7-6s-1.3-1.8-1.4-2.2c-.2-1.1.8-2.3,1.4-3.1,6.9-9.9,20.2-10.4,27.7-.9s1.8,2.5,2,3c.3,1.1-.8,2.5-1.4,3.3s-1.3,1.6-2,2.4h4.9c.2-.1.2-.5.3-.7.1-1.4-.1-3.2,0-4.6s.4-1.6,1.4-1.6c1.5,0,3.3.2,4.8,0s.5,0,.7-.1v-4.2c0,0-.3,0-.5,0-1.7,0-3.5,0-5.2,0s-2.7.2-3.2-.2c-1.5-1.1.7-3,1.1-4.1-.5-1.1-1.9-2.3-1.6-3.5s.6-.7,1-.8c1.4-.2,3.2,0,4.6,0s2.5-.1,3.7,0,2.6-.1,2.8,1.1,0,2.3,0,3.5c0,2.5,0,5,0,7.5s-.2.6,0,.9ZM-92.6-57.5h-5.7c.2.6.8,1,.8,1.7s-.6,1.1-.8,1.8h5.7c0-.1,0-3.5,0-3.5ZM-117.1-53.2c-4.2,0-8,2.2-10.7,5.3s-1.7,2.1-1.7,2.5,1.4,2.1,1.7,2.5c6,6.9,15.9,6.9,21.9,0s1.3-1.6,1.5-2.1-.3-1.2-.7-1.7c-2.7-3.9-7.3-6.5-12.1-6.4ZM-85.7-44.6h-11.2s0,31.1,0,31.1c2.1,0,4.3,0,6.4,0s2.4,0,3.6,0,1,.3,1.2-.2v-30.8ZM-113.5-23.8h-11.1s0,10.4,0,10.4h11.1s0-10.4,0-10.4Z"/>
      <path class="st0" d="M-117.9-52.3c7.8-.9,11.1,9.2,4.6,12.9-5.8,3.4-12.6-2.7-9.8-8.9s3.1-3.8,5.3-4ZM-116.9-49.7c-6.1.2-5,9.8,1.1,8.5s4-8.6-1.1-8.5Z"/>
    </g>
  </g>
  <g id="_x32_TkbpM.tif">
    <g>
      <path class="st0" d="M-176.8,4.7c.6,2-1.1,4.4-1.8,6.3h7.6c.7,0,2.6,1.4,2.9,2.2.5,15.2,0,30.5.2,45.8,0,2.1-1.7,3.7-3.7,3.7l-35.1-.2c-2.3-.6-1.9-2.2-2.7-3.2s-.9-.2-1.4-.8c-.7-.9-.8-3.3-1.6-3.9-2-1.6-4.2,1.5-5.5,1.2s-2.8-2.5-2.9-2.8c-1.1-1.9,2.5-3.6.9-5.9-.7-1-3.6-1-4.4-2.3v-3.9c.9-1.4,3.6-1,4.4-2.3,1.7-2.4-1.8-3.9-.6-6s2.1-2.2,2.2-2.2c1.5-.9,3.2,1.3,4.6,1.1,2.9-.5,2-3.5,3.1-4.4s1.3-.2,1.4-.3c.5-.4-.3-10.9,0-12.9s1.8-2.9,2.8-2.9h7.9c-.2-2.1-2.3-4.2-1.5-6.3h23ZM-179.2,6.5h-18.5l2.7,7.4c4.4,0,8.8.2,13.1-.1l2.7-7.3ZM-207,59c-.2,1.4,1.4,1.7,2.5,1.8,10.2-.6,21.2.7,31.4,0,2.1-.1,3.2,0,3.4-2.2,1.2-13.8-.9-29.3,0-43.3,0-1.2-.4-2.1-1.6-2.2s-7.2-.1-7.7,0c-1,.4-.4,2.7-2.4,3-4.2.6-9.7-.4-14,0-1.6-.3-1.1-2.7-2.4-3s-7.6,0-8.2.2-.5.4-.6.6c-1,1.7.2,10.5-.3,13,2.5-.4,1.8,3,3,4s1.8.8,2.2.7c1-.1,2.4-1.7,3.6-1.4s3.2,2.9,3.1,3.6c-.3,1.6-2.7,3.5-.6,5.4s4.3-.4,3.8,4.9c-.3,2.8-4,1.6-4.7,3.7s2.1,3.6,1.1,5.3-2.7,2.7-2.9,2.8c-1.3.3-4.1-2.7-5.7-1.1s-.5,5-2.8,4.4ZM-207,28.9c-.2-.1-1.8-.1-2,0-.4.2-.9,3.1-1.3,3.5s-2.6,1.2-2.8,1.2c-1.8.4-3.8-1.5-4.3-1.3-2.6,1.2.2,3.4.2,4.8s-1.1,2.9-1.3,3.1c-.8,1.1-3.6,1.4-3.7,1.7s0,2.1,0,2.2c.1.1,3,.7,3.6,1.2s1.2,2.5,1.3,2.7c.4,1.7-1.9,3.3-1.1,4.6,1.3,2.2,3.1-.7,4.6-.7s2.6.9,2.8,1c1.1.6,1.3,3.6,1.7,3.7,3.3.9,2.1-1.9,3.4-3.5s3-1.5,4-1.3,2.5,1.6,3.2,1.3c2.6-1.1-.5-3.5-.5-4.8s.9-2.2,1-2.4c.9-1.6,3.9-1.7,4-2.1s0-2.1,0-2.2c-.2-.2-2.9-.7-3.4-1.2s-1.3-2.7-1.3-2.9c-.2-1.4,1.5-3.5,1.3-4-1.2-2.6-3.6.2-4.8.2s-3.1-1.3-3.3-1.4c-.8-.6-1.1-3.3-1.4-3.5Z"/>
      <path class="st0" d="M-175.6,24.1v13.6c0,.8-2.2,2.9-3.1,3.2-2.9.9-7.4-1.4-8,3.4,0,.8-.1,4.2,0,4.7s2.8,1.2,2.6,3.9c-.3,4.6-7.2,4.3-7.2-.3s2.1-2.9,2.4-3.6c.7-1.9-.6-4.6.8-7.3,2.2-4.3,7.6-1.6,9.6-3.3s.7-.9.7-1.1v-13c-.9,1.3-3.7,2.3-2.9,0s3.5-3.8,4-3.8c.7,0,4.1,3.3,4.3,3.8.7,2.6-2.5,1-3.2-.2Z"/>
      <path class="st0" d="M-188.2,28.6c6-1.2,6.5,7.6.8,7.4s-4.9-6.6-.8-7.4ZM-187.6,30.4c-1.6.3-1.9,2.6-.4,3.3,3.1,1.5,3.6-3.9.4-3.3Z"/>
      <path class="st0" d="M-177.8,44.4c1-.3,1.5,1.5,2.3,1.5s1.7-2.5,2.9-1.1-1.5,2.2-1.5,2.7,2.8,1.7,1.4,2.9-2.2-1.5-2.7-1.5-1.7,2.8-2.9,1.4,1.5-2.2,1.5-2.7-3.3-2.5-1-3.1Z"/>
      <path class="st0" d="M-208.5,37.3c7.3-.7,8,10.6.8,11s-8-10.3-.8-11ZM-208.5,39.4c-4.5.6-3.6,7.4,1.1,6.8,4.2-.6,3.4-7.4-1.1-6.8Z"/>
      <path class="st0" d="M-192.2,11.2c-.5-.1-.7-1.5-.3-1.8s6.9-.4,7.7-.2c1.1.3.9,2,.4,2-1.5,0-6.8.3-7.8,0Z"/>
    </g>
  </g>
  <g>
    <path class="st0" d="M-167.3-12.1h1.6c.1,0,.5.4.5.5.3.6-.1,1.5-.8,1.5h-2.1v5.3c0,.2-.6.7-.8.6h-16c-.3.1-.9-.5-.9-.6v-5.3h-2.1c0,0-.5-.2-.6-.3-.6-.5-.2-1.7.3-1.7h1.4c.1-2.3-.3-4.5-1.3-6.5s-3.5-4.2-5-6.7c-7-10.9-.1-24.5,12-27.1,17.2-3.7,30.5,15.5,18.6,29.4-.6.7-1.3,1.3-1.8,2-2.1,2.6-3.1,5.6-2.8,8.9ZM-169.3-12.1c-.2-3,.5-5.8,2.1-8.4,1.6-2.6,4-4.3,5.4-7.1,5.3-10.1-1.8-21.6-12.7-23.1-12.3-1.7-23.4,10.1-18.2,22.1s4.7,5.6,6.4,9.2,1.5,4.8,1.5,7.4h15.6ZM-170.1-10.1h-13.8v4h13.8v-4Z"/>
    <path class="st0" d="M-154.3-53.3s.3.3.3.3c.3.7.1.9-.3,1.4-1.3,1.3-3,2.4-4.3,3.7-.7.5-1.6-.2-1.5-.9s.3-.6.6-.9c1.3-1.3,2.9-2.4,4.3-3.7.3-.2.7-.1,1,0Z"/>
    <path class="st0" d="M-194.5-50.2c.9,1,.1,2-1,1.7l-4.4-4.1c-.7-1,.2-2,1.3-1.5,1.3,1.4,2.8,2.5,4.1,3.9Z"/>
    <path class="st0" d="M-176.9-63.2c.2.2.4.7.4,1,.1,1,.1,3.6,0,4.6s-1.8,1.2-2,.2-.1-4.4,0-5.1,1-1,1.6-.6Z"/>
    <path class="st0" d="M-172-43.3c1.9-.2,4-.4,5.7.7,3.3,2.1,1.3,6.8-.7,9.2h1.5c2.2.7,3.1,3.2,1.7,5s-.7.6-.8.7c-.1.3,0,1.2-.3,1.8-1.1,2.8-4.5,2.8-7.1,2.4-.8,1.5-1.7,3.2-3.2,4-3.3,1.8-6-1.2-7.2-4l-2.3.3c-2.3,0-4.7-1.1-5.1-3.6s0-.8,0-1-1-.9-1.2-1.8c-.4-2.3,1.3-3.9,3.6-3.8-1.5-2.1-3.2-5.1-2-7.7s3.5-2.5,5.4-2.4,1.3.3,1.6.1c.5-.3,0-.9-.1-1.3-.7-2.5,1.8-4.8,4.2-3.7s.5.4.7.5.3,0,.5,0c2.6.4,4,2.2,5,4.6ZM-180.3-44.7c1,.9,2.4-.5,1.5-1.5s-2.6.6-1.5,1.5ZM-173.9-42.7c-.5-1.2-1.3-2.5-2.6-3,.1,1.5-.8,2.7-2.2,3.2h-.9c.6,0,2.1,1.1,2.4,1.1s1.6-.7,1.9-.8.8-.3,1.3-.4ZM-183-41.4c-3.4-.5-5.8.5-4.2,4.3s.8,1.4,1.2,2.1c.1,0,.2,0,.2,0,.2-.1,1.8-1.8,1.9-1.9.2-.4.3-1.7.4-2.3s.4-1.4.5-2.1ZM-168.9-35.6c.1.1.6.6.7.6,1-1.4,2.7-4.4,1-5.8s-2.8-.7-4-.6c.4,1.4.7,2.8.9,4.3.4.5.9,1,1.4,1.5ZM-179.3-40.3l-1.8-.6-.5,2.1,2.3-1.5ZM-173.1-40.9l-1.7.6,2.3,1.5-.6-2.1ZM-172.2-36c-1.5-1.2-3.1-2.3-4.8-3.2-.4-.1-4.5,2.7-5,3.3-.1,1.7-.1,3.4,0,5.1.9.8,1.9,1.5,3,2.2s1.6,1,1.8,1.1.3,0,.4,0c.7-.3,1.9-1.1,2.6-1.6s1.9-1.3,2-1.5c.2-1.7.1-3.5,0-5.2ZM-165.4-29.6c1-1-.5-2.5-1.5-1.5s.5,2.6,1.5,1.5ZM-187.2-29.6c1-1-.5-2.4-1.5-1.5s.5,2.6,1.5,1.5ZM-166.5-27.4c-1.8-.1-2.8-1.8-2.7-3.5l-1.2,1.2c-.1,1.5-.5,2.9-.9,4.3,1.8.2,4.4.3,4.8-2ZM-184.3-30.2c-.2-.2-.4-.3-.6-.5.2,1.7-1.1,3.3-2.8,3.3.1,2.3,3,2.2,4.7,2-.1-.7-.4-1.4-.5-2.2s-.2-1.7-.4-2.2-.3-.3-.4-.4ZM-179.3-26.4l-2.3-1.5.5,2.1,1.8-.6ZM-173.1-25.9l.5-2.1-2.2,1.5,1.7.6ZM-173.9-24.1l-3.3-1.2c-1,.5-2.1.9-3.2,1.2.5,1.1,1.4,2.5,2.5,3,1.9.7,3.3-1.5,4-3Z"/>
    <path class="st0" d="M-179.4-35.4c2.6-3,7.4,1.2,4.4,4.2s-7.1-1.1-4.4-4.2ZM-177.4-34.4c-1.3.3-.8,2.5.7,2s.8-2.4-.7-2Z"/>
  </g>
  <g>
    <path class="st0" d="M59.1-27.2c-.9-.2-1.7-.4-2.5-.6,3.3-2.7,5.4-5.9,6.5-9.7.9-3,.7-3.2.5-3.4-.2-.2-1.9-.5-2.2-.3h-.1c0,.1,0,.3,0,.3-.6,4-2.5,7.8-5.3,10.4-.8.7-2.3,1.8-2.8,1.9-.4-.5-1.9-2.5-2.4-3.2,1.4-1.4,2.3-2.7,2.8-4.2.1-.4.2-.7.2-1.1,0-.4.1-.8.3-1.1,0-.2.3-.4.5-.6.3-.2.6-.5.8-.8.7-1,1.2-2.7.6-3.8-.2-.4-.5-.8-1.3-1,.4-1.9.5-4.2-1-6.1-.1-.2-.3-.3-.5-.4,0,0-.1,0-.2-.1,0,0,0,0,0,0,.3-.7,1-2,.2-3l-.2-.2h-.3c-.5.1-.9.3-1.3.6-.4.2-.9.5-1.3.4-.3,0-.8-.2-1.3-.3-.4-.1-.9-.3-1.3-.4h-.4c-2.6-.5-5.6-1-8,.7-.5.3-.8.8-1.2,1.2-.2.2-.4.5-.5.6-.2.1-.4.2-.6.3-.5.1-1,.3-1.5.9-1.3,1.4-1.2,3-1.1,4.4,0,.7,0,1.3,0,1.8,0,0,0,0,0,0-.2,0-.6.2-.9.6-.8,1.1-.6,2.5.4,4.1.2.3.6.6.9,1,.2.2.5.4.5.5,0,.2,0,.4.1.7,0,.3,0,.6.2.9.7,2,1.5,3.3,3,4.7-.2.3-.4.6-.7,1-.5.7-1.4,2.2-1.7,2.3-.4-.1-2.4-1.6-2.8-2-2.9-2.5-5-6.6-5.5-10.6v-.2s-.4-.3-.4-.3h-.2s-1.5,0-1.8.4c-.5.6.9,4.5,1,4.7,1.1,3.1,3,5.7,5.7,8.1.2.2.4.3.7.5,0,0,0,0,0,0-3.8.8-8.8,1.9-9.4,6.7-.2,1.6-.1,3.5,0,5.3,0,1.6.2,3.2,0,4.7v.5c0,0,24.1,0,24.1,0v.3s.1-.3.1-.3h19.1v-10.9c0-.6-1.3-2.7-1.5-3-1.6-2-3.9-2.5-6.2-3ZM44-15.8c.1-1.7.3-4.3.5-5.1.1,0,.2,0,.3,0,0,0,.2,0,.3,0l.6,8h-1.9c0-.6.1-1.6.2-3ZM49.5-25.5l-.2-.3c-.1-.2-.3-.5-.7-.5-.2,0-.4,0-.5.2-.7,0-1.4,0-2.2,0-1.7,0-3.5.1-4.9,0-.2-.2-.4-.3-.7-.2h-.2s-.1.2-.1.2c-.3.5,0,1,.8,2.5.4.6,1,1.7,1,2l-.6,5.8-3.1-11c.2-.6,1.6-2.6,2.2-3.3,2.3,1.1,4,1.5,6.5.7.3,0,.6-.3.9-.4.3-.1.7-.4.8-.4.3.1,1.2,1.5,1.7,2.1.2.4.5.7.6.9l-3.1,11.7-.7-6.2,2.2-3.8ZM36.8-45.2c0-1.5,0-3.3.8-3.7.1,0,.5-.1.8-.2.6,0,.9-.2,1.2-.4.1-.1.2-.3.3-.6,0-.3.2-.7.4-.9,1-1,3.1-1.3,6.2-.8.5,0,1,.2,1.5.4.7.2,1.4.4,2.1.4l-1.2,1.9,1.2-.2c.7-.2,1.3,0,1.7.3.5.4.9,1.2.9,2.1,0,.3,0,.8-.2,1.3-.2,1.4-.4,2.3,0,2.9.4.6,1,.6,1.3.6,0,0,0,0,0,0,0,0,0,0,0,0,0,.7-.6,1.2-1.2,1.7-.4.3-.8.7-1,1.1-.2.4-.2.9-.3,1.4,0,.6-.2,1.2-.4,1.7-1.2,2.8-3.7,4.6-6.5,4.6h0c-2.7,0-5-1.7-6.2-4.4-.2-.4-.3-1.2-.4-1.8-.1-.8-.2-1.2-.3-1.4-.1-.2-.3-.4-.7-.6-.5-.4-1.1-.9-1.3-1.4-.1-.3-.1-.5-.2-.6,0,0,0,0,0,0,.2,0,.4,0,.6-.2.8-.4.8-1.6.7-3.1ZM49.8-12.8l3.6-13.1s0,0,0,0c0,0,.1,0,.2,0,1.5.2,7,1.5,8.2,2.1.8.4,2.4,2.2,2.4,2.8v8.2h-14.4ZM25.9-20.7c0-.3.8-1.7,1-1.9,1.1-1.5,3.6-1.9,6-2.4,1.2-.2,2.3-.4,3.3-.8l3.3,12.9h-13.6v-7.9Z"/>
    <path class="st0" d="M47.7-59.4c.4,0,1,.1,1.1.2,5.6,1.5,10,5.6,11.8,11.1,0,.2.2.7.3,1.3.4,1.7.4,1.9.6,2h0c.2.1.4.2.7.2s.6,0,.9-.2c.4-.2.6-.4.6-.6,0-.2,0-.3-.5-2.3-1.7-6.5-6.8-11.7-13.2-13.6h-.2c-2-.6-2.8-.7-3.2-.4-.2.1-.4.4-.4,1.1,0,.8,0,1,.2,1,.2.2.3.2,1.2.3Z"/>
    <path class="st0" d="M26.9-44.7c.3,0,.6,0,.7-.2.2-.2.3-.3.7-2.1.1-.5.2-1.1.3-1.3,1.8-5.3,6.2-9.4,11.7-10.9.2,0,.7-.1,1.1-.2.9-.1,1.1-.1,1.2-.3h0c.4-.4.1-1.4.1-1.4-.1-.6-.4-.8-.7-.9-.5-.2-1.4,0-2.4.4h-.3c-7.3,2-13,8.6-13.9,16.1v.2s0,.2,0,.2c.2.3.8.5,1.3.5Z"/>
    <rect class="st0" x="43.3" y="-66.5" width="2.5" height="8.9"/>
    <rect class="st0" x="20.9" y="-44" width="9.1" height="2.3"/>
    <rect class="st0" x="59.1" y="-44" width="9.1" height="2.3"/>
  </g>
  <g>
    <path class="st0" d="M44.6,14.8c-3.9-5.7-10.6-8.6-17.4-7.5-6.6,1-11.8,5.4-14,11.7-2.2,6.3-.7,13,3.8,17.9.5.6,1,1,1.5,1.4,1.4,1.2,2.4,2.2,2.7,4.5,0,.3,0,.5,0,.8,0,.9.1,1.8.8,2.7-1,1.2-1,2.7-.2,3.9,0,0,0,0,0,0-.2.4-.5.8-.5,1.4-.1,1.9,1.2,3.4,3.1,3.5,0,0,.2,0,.4,0,.1,0,.3,0,.4,0l.7,2.7c.2.5.5.7.8.8h6.3s.2,0,.2,0h.1c0-.2.2-.2.2-.3.3-.3.5-1.2.8-2.5,0-.3.1-.6.2-.8,0,0,.2,0,.3,0,.2,0,.4,0,.5,0,1.3,0,2.3-.7,2.8-1.8.5-1,.4-2.2-.2-3.2.5-.8.7-1.8.4-2.7-.1-.5-.4-.9-.7-1.2.6-.8.7-1.8.8-2.6,0-.3,0-.5,0-.8.2-1.5.9-2.8,2-3.9.3-.3.5-.5.8-.8,1.5-1.4,2.6-2.5,3.8-4.5,3.5-6,3.2-13.2-.7-19ZM28.3,56.3c0-.1,0-.4-.1-.6,0-.1,0-.3,0-.4h3.8l-.3,1h-3.4ZM24.1,52c0-.2.2-.4.5-.4h10.8c.4,0,.5.3.5.5,0,.2-.1.4-.4.5h-11.2c0,0-.1,0-.2-.1-.2-.2-.2-.4-.1-.5ZM24.6,49c0,0-.4-.1-.4-.2-.2-.2,0-.4,0-.5,0-.1.2-.3.4-.3h10.9c.4,0,.5.3.5.5,0,.2-.1.4-.4.5h-11ZM34.2,45.3c-1.8.1-3.8,0-5.7,0-1,0-2,0-3,0s-.2,0-.4,0c-1-.2-1.1-.8-1.1-1.9,0-.2,0-.5,0-.7-.3-2.2-1.3-4.1-2.9-5.6l-.5-.4c-2.2-2.1-3.6-3.4-4.7-6.4-3.1-8.1,1.1-14.6,5.5-17.7,4.5-3.1,12.1-4.7,18.6,1.1,6,5.4,6.7,14.6,1.5,20.9-.5.7-1.2,1.2-1.8,1.8-.9.8-1.8,1.6-2.5,2.8-1,1.7-1.1,2.8-1.2,4.4v.4c-.1.9-.6,1.4-1.8,1.4Z"/>
    <path class="st0" d="M53.1,24.2c-.2-.4-.7-.8-1.2-.8-.1,0-.3,0-.4,0,0,0,0,0-.1,0-.2,0-.4,0-.5,0-.4,0-.8,0-1.1,0-.5,0-1,.5-1.1,1.1,0,.6.2,1.2.7,1.4,0,0,.4.2,1.2.2s.4,0,.7,0c.5,0,1.1,0,1.4-.3,0,0,.1-.1.1-.2h.2s0-1.2,0-1.2h0Z"/>
    <path class="st0" d="M11.3,24.6c0-.6-.5-1-1.1-1.1-.5,0-2,0-2.4,0-.4,0-.5.3-.7.4,0,0,0,0-.1.1h-.1v1.2h0c.2.5.5.7.8.8.3,0,.8,0,1.3,0s1.2,0,1.5-.2c.5-.2.8-.8.7-1.4Z"/>
    <path class="st0" d="M30,6.1s0,0,.1,0c.6,0,1.1-.5,1.1-1.1,0-.4,0-2,0-2.5,0-.4-.4-.6-.6-.8l-.3.3h0s.2-.3.2-.3h-.1c0,0-1.1,0-1.1,0h-.2c-.2.3-.5.5-.6.9,0,.4,0,2,0,2.5,0,.6.6,1,1.3,1Z"/>
    <path class="st0" d="M47.6,33.5c-.6-.1-1.2.1-1.5.7-.3.6-.2,1.2.3,1.6.1.1,1.9,1.2,2.1,1.2,0,0,.2,0,.2,0,.3,0,.8-.1,1-.3h0c.3-.3.4-.7.4-1.1,0-.4-.2-.7-.5-1-.2-.2-1.8-1.1-2.1-1.2Z"/>
    <path class="st0" d="M10.2,14.8c.2.1.5.3.7.5.3.2.7.4,1.1.6.3.1.5.2.7.2.5,0,.9-.3,1.1-.6.3-.5.3-1.3-.4-1.8-.4-.3-1.3-.8-1.6-.9-.2-.1-.4-.2-.6-.2-.5,0-1,.2-1.2.7-.3.5-.2,1.1,0,1.5h.1Z"/>
    <path class="st0" d="M12.4,33.5c-.3,0-1.9,1-2.1,1.2-.3.2-.5.6-.5,1,0,.4.2.8.4,1,.2.2.6.3.9.3s.3,0,.4,0c.3,0,1.8-1,2-1.2.5-.4.6-1,.3-1.6-.3-.6-.9-.8-1.5-.7Z"/>
    <path class="st0" d="M47.3,16.1c.2,0,.3,0,.5,0,.4-.1,1.5-.8,1.8-1,.5-.4.7-1,.5-1.6-.2-.6-.7-.9-1.3-.9h0c-.1,0-.2,0-.4.1-.2,0-1.9,1-2.1,1.3-.4.5-.4,1.1,0,1.6.3.4.7.6,1.1.6Z"/>
    <path class="st0" d="M18.8,8.1s.3.5.5.6c.2,0,.4.1.6.1s.4,0,.6-.1c.3-.1.6-.4.7-.7.2-.5.1-.8,0-1.2-.2-.4-.8-1.4-1.1-1.8-.4-.5-1.2-.6-1.7-.2-.5.3-.7.8-.6,1.4,0,.4,1,1.9,1,1.9Z"/>
    <path class="st0" d="M40,8.8c0,0,.2,0,.3,0,.2,0,.4-.1.4-.2,0,0,0,0,0,0h.3s0-.3,0-.3c0-.2.2-.5.4-.8.4-.7,1-1.6.3-2.4-.2-.3-.6-.4-1-.4-.4,0-.7.1-.9.4-.2.2-1.1,1.7-1.2,2-.2.5-.1,1,.2,1.4.3.3.6.5,1.1.5Z"/>
    <path class="st0" d="M42.9,41.3c-.4-.4-.8-.6-1.3-.5-.4,0-.7.3-.9.6-.2.3-.3.8-.1,1.2,0,.3.9,1.5,1.1,1.8.2.2.3.5.7.6.1,0,.3,0,.4,0,.4,0,.8-.2,1-.5.3-.4.4-1,.2-1.5-.1-.3-.8-1.5-1.1-1.8Z"/>
    <path class="st0" d="M18.3,40.8c-.5,0-.9.2-1.2.7-.2.3-.9,1.3-1,1.7-.2.5,0,1,.2,1.4.3.3.6.5,1.1.5s.2,0,.2,0c.4,0,.7-.4.8-.6,0,0,0-.1.1-.2v-.2c.1-.2.3-.4.5-.7.3-.5.8-1.2.3-2-.2-.4-.6-.6-1-.6Z"/>
    <path class="st0" d="M40.6,33.1c0-1.1-.1-2.1-.6-3,0,0,0,0,0,0,.3-.2.7-.4,1-.7,1.5-1.3,2.3-3.3,2-5.3-.3-2-1.5-3.7-3.2-4.5-.5-.2-1-.4-1.6-.5,0-1.5-.7-3-1.7-4-1.8-1.7-4.6-1.7-6.6-.3-1.7-1.1-3.5-1.3-5.1-.7-2,.8-3.2,2.6-3.3,4.9-2.2.6-3.7,1.9-4.4,3.7-1.1,2.9,0,6,2.7,7.5-.9,1.6-.8,3.5.1,4.9.9,1.4,2.4,2.1,4.2,2.1.4,1,1,1.8,1.9,2.2.9.4,1.9.4,2.9,0,.3-.1.5-.2.7-.4,0,0,.1,0,.2-.1.7.6,1.5.8,2.3.8.4,0,.8,0,1.2-.2,1.1-.4,1.9-1.2,2.3-2.4h0c.6,0,1.1,0,1.7-.2,1.7-.5,3-2.2,3.2-3.9ZM33.2,35.5c0,.5,0,1-.2,1.3-.3.3-.6.4-.9.3-.4-.1-.6-.4-.7-.7v-10.1c.2-.1.6-.2.8-.2.2,0,.4,0,.7.1.4.1.9.3,1.5,0,.5-.3.7-1.1.4-1.7-.5-1-2.2-1.2-3.3-1v-6.3c.2-.2.6-.4.8-.5,1.3-.5,2.3,0,2.8.7.7.8.8,2,.2,3,0,0-.1.2-.2.3-.2.2-.4.5-.5.8,0,.5,0,.9.3,1.2.3.3.8.4,1.3.4.6-.1.9-.7,1.2-1.1,0-.1.2-.3.1-.3.3,0,1.4.5,1.8.8.9.8,1.4,1.9,1.1,3.1-.2,1.2-1.1,2.2-2.2,2.5-.4.1-.9,0-1.4,0-.4,0-.8-.2-1.3-.1-.9,0-2.6.8-3.1,1.7-.3.5-.2,1,.2,1.5.3.4.9.6,1.4.4.2,0,.4-.2.6-.4.1,0,.2-.2.3-.2,1.1-.6,2.1-.2,2.6.4.5.6.7,1.6,0,2.6-.4.5-1.1.7-1.7.7-.1-.5-.5-.9-1-1-.6-.1-1.2.2-1.5.7-.2.4-.2.9-.1,1.3ZM26.4,33.8c-.3-.2-.6-.4-.9-.4s-.2,0-.3,0c-.4,0-.8.4-.9.8,0,0,0,.2,0,.3,0,0,0,0,0,0-.2,0-.6,0-.8,0-1.2-.3-1.5-1.4-1.3-2.3.2-.8.9-1.7,2.3-1.6.3,0,.5.2.8.4.4.3.9.6,1.6.5.6-.1,1.1-.8,1-1.5-.2-1.2-2.4-2-3.3-2.1-.5,0-1,0-1.3.1-.5.1-1,.2-1.6,0-.8-.3-1.5-1.2-1.8-2.1-.3-1-.2-1.9.4-2.7.5-.8,1.4-1.3,2.4-1.5.3.5.9,1.2,1.6,1.3.3,0,.7,0,1.1-.4.7-.8.2-1.5-.2-2-.1-.2-.2-.3-.3-.5-.6-1.2-.1-2.3.5-2.9.6-.6,1.6-1,2.8-.5.1,0,.6.4.7.5v6.3c-.9-.2-2.1-.1-3,.5-.5.4-.8,1-.6,1.5.2.6.8.9,1.4.9.2,0,.4-.1.6-.2,0,0,.2,0,.3-.1.2,0,.9-.2,1.3.2v10c0,.5-.5.8-.8.8-.1,0-.7,0-.9-.5,0-.2,0-.6,0-1,0-.6,0-1.3-.4-1.8Z"/>
  </g>
</svg>