<?xml version="1.0" encoding="UTF-8"?>
<svg id="Layer_1" xmlns="http://www.w3.org/2000/svg" version="1.1" viewBox="0 0 60 60">
  <!-- Generator: Adobe Illustrator 29.0.1, SVG Export Plug-In . SVG Version: 2.1.0 Build 192)  -->
  <defs>
    <style>
      .st0 {
        fill: #074c02;
      }
    </style>
  </defs>
  <path class="st0" d="M45,37.2c4.2-5.3,5.2-12.2,2.9-18.5-2.4-6.3-7.7-10.9-14.3-12.1-7.8-1.5-15.3,1.7-19.6,8.4-4.3,6.6-4.2,14.8.2,21.2.9,1.3,1.9,2.3,2.9,3.2,1.5,1.5,3,2.9,3.7,5.2.5,1.5.4,2.9.4,4.4,0,.9,0,1.8,0,2.7.2,2.3,2,4.4,4.3,5,.6,2,2.3,3.2,4.4,3.2h0c2.1,0,3.8-1.3,4.4-3.2,2.4-.6,4.2-2.7,4.3-5,0-1,0-1.9,0-2.7,0-1.9,0-3.5.9-5.5.8-1.7,1.9-2.8,3.1-3.9.7-.7,1.5-1.4,2.2-2.3ZM35.8,48.8c.1,2.9,0,4.7-2.4,5.1,0,0-.1,0-.2,0h0c-.2,0-.5,0-.9.3-.5.4-.6.9-.6,1.3,0,.1,0,.2,0,.4-.2.9-1,1.1-1.5,1.1-.6,0-1.3-.3-1.5-1.2,0-.1,0-.2,0-.3,0-.4,0-.9-.7-1.3-.3-.2-.6-.2-.8-.2h0c0,0-.1,0-.2,0-2.5-.4-2.6-2.2-2.4-5.2,0-.7,0-1.3,0-2-.1-2.5-1.1-5.1-2.7-7.1-.6-.8-1.4-1.5-2.1-2.1-.6-.5-1.1-1-1.7-1.6-4.1-4.7-5.1-11.2-2.6-16.9,2.4-5.7,7.8-9.4,14-9.8,6.5-.3,12.3,3.1,15.2,8.9,2.9,5.9,2.1,12.7-2.2,17.7-.5.6-1,1.1-1.6,1.6-.7.6-1.4,1.2-2,2-1.6,2.1-2.7,4.8-2.8,7.3,0,.6,0,1.3,0,2Z"/>
  <path class="st0" d="M30,5.1h0c.7,0,1.4-.5,1.5-1.6,0-.2.1-2-.2-2.6-.3-.7-1-1-1.8-.8-.6.1-1,.7-1.1,1.2,0,.5,0,1.8,0,2.3.1,1,.9,1.5,1.5,1.5Z"/>
  <path class="st0" d="M20.5,6.2c.3.4.7.5,1.1.5.2,0,.4,0,.6-.2.6-.3,1-1,.8-1.8,0-.3-.8-2.1-1-2.4-.3-.4-.8-.6-1.3-.6-.4,0-.8.2-1.1.6-.3.3-.4.7-.3,1.1,0,.3.9,2.4,1.1,2.7Z"/>
  <path class="st0" d="M37.7,6.6c.2.1.4.2.6.2.4,0,.8-.2,1.1-.5.2-.3,1.1-2.4,1.1-2.7,0-.4-.1-.9-.4-1.2-.3-.3-.8-.5-1.2-.5-.4,0-.9.3-1.1.7-.2.3-.9,2-1,2.4-.1.7.2,1.4.8,1.8Z"/>
  <path class="st0" d="M13.5,11c.4.3.8.4,1.1.4s.7-.2,1-.4c.6-.5.6-1.3.2-1.9-.2-.2-1.6-1.7-1.9-1.9-.4-.2-.8-.3-1.2-.2-.3,0-.6.3-.8.6-.2.4-.3.8-.2,1.2.1.6,1.7,2.1,1.9,2.2Z"/>
  <path class="st0" d="M45.4,11.5c.2,0,.4,0,.7-.1.4-.2,2.1-1.8,2.2-2.3.2-.5,0-1.1-.3-1.5-.4-.4-1-.6-1.5-.5-.2,0-.4.2-.6.3-.2.1-1.7,1.6-1.8,1.9-.3.6-.2,1.3.2,1.7.3.3.7.5,1.1.5Z"/>
  <path class="st0" d="M9.6,18.5c0,0,.2,0,.2,0,.6,0,1.2-.4,1.4-.9.3-.6,0-1.4-.5-1.8-.3-.2-2-.9-2.3-1-.3,0-.5,0-.8,0h0c-.6,0-1,.5-1.1,1.1-.2.6,0,1.2.5,1.6.3.2,2.3,1.1,2.6,1.1Z"/>
  <path class="st0" d="M14.2,39.3c-.2,0-.4.2-.6.3-.2.1-1.7,1.6-1.8,1.9-.3.6-.2,1.3.2,1.7.3.3.7.5,1.1.5s.4,0,.7-.1c.4-.2,2.1-1.8,2.2-2.3.2-.5,0-1.1-.3-1.5-.4-.4-1-.6-1.5-.5Z"/>
  <path class="st0" d="M50.1,18.5c.1,0,.2,0,.3,0,.4,0,1.9-.7,2.2-.9.8-.4,1-1.3.8-1.9-.2-.7-1-1.1-1.7-1h0c-.4,0-1.9.7-2.2.9-.7.4-1,1.2-.8,1.9.2.6.8,1,1.4,1Z"/>
  <path class="st0" d="M46.2,39.5c-.4-.2-.8-.3-1.2-.2-.4,0-.7.3-.9.6-.2.4-.3.8-.2,1.3.1.5,1.9,2.2,2.3,2.4.2,0,.4.1.7.1.4,0,.8-.2,1.1-.5.4-.5.5-1.2.1-1.8-.2-.2-1.6-1.7-1.9-1.9Z"/>
  <path class="st0" d="M8.6,26.8c.7-.1,1.2-.7,1.2-1.5,0-.7-.4-1.4-1.4-1.5-.5,0-1.9,0-2.4,0-.7.1-1.2.7-1.2,1.4,0,.7.3,1.3,1,1.5.2,0,1,.1,1.7.1s1.1,0,1.2,0Z"/>
  <path class="st0" d="M53.9,23.8c-.5,0-1.9,0-2.4,0-.7.1-1.2.7-1.2,1.4,0,.7.3,1.3,1,1.5.2,0,.9.1,1.6.1s1.1,0,1.2,0c.7-.1,1.3-.7,1.3-1.5,0-.8-.6-1.4-1.4-1.5Z"/>
  <path class="st0" d="M9.7,32.2h0c-.4,0-2.1.8-2.3.9-.8.4-1,1.2-.8,1.8.2.6.8,1,1.5,1s.2,0,.3,0c.3,0,2.4-.9,2.6-1.2.5-.4.6-1.1.3-1.7-.3-.6-.9-1-1.5-.9Z"/>
  <path class="st0" d="M50.7,32.3h-.1c-.2-.1-.4-.2-.7-.1-.6,0-1,.5-1.2,1.1-.2.6,0,1.2.4,1.6.3.3,2.4,1.1,2.6,1.2,0,0,.2,0,.3,0,.6,0,1.1-.3,1.4-.8.3-.6.2-1.2-.3-1.7-.4-.4-2.3-1.1-2.3-1.1Z"/>
  <path class="st0" d="M37.5,27.3c1-.1,1.2-1,1.3-1.5,0-.1,0-.3,0-.4.1-.3.4-.6.8-.6.4,0,.8,0,1,.4.1.2.2.3.2.6,0,.2,0,.4.1.6.1.5.5.8,1,.9.2,0,.3,0,.5,0,.3,0,.6-.1.9-.3.3-.3.5-.6.6-1.1.1-1-.5-2.2-.9-2.7-.9-1.1-2.3-1.6-3.7-1.5-1.8.2-3.4,1.8-3.6,3.6,0,.7,0,1.2.5,1.6.2.2.6.5,1.3.4Z"/>
  <path class="st0" d="M22.8,22.7c-.9-.7-2-1-3.1-.9-1.1.1-2.1.7-2.8,1.7-.6.8-.9,1.8-.8,2.7,0,.6.6,1.1,1.3,1.2.7,0,1.3-.3,1.6-1,0-.2.1-.4.1-.6,0-.2,0-.3.2-.5.2-.3.6-.5,1-.4.4,0,.7.3.8.6,0,.1,0,.3,0,.4,0,.5.2,1.3,1.2,1.4.1,0,.2,0,.3,0,.5,0,.8-.2,1-.4.4-.3.5-.9.5-1.5,0-1.1-.6-2-1.5-2.7Z"/>
  <path class="st0" d="M33.2,27.2c-1.2-.5-1.7.4-2,.9-.1.2-.3.4-.4.6-.6.4-1.4.3-1.8-.3,0,0,0-.1,0-.2,0-.1-.1-.3-.2-.4-.3-.4-.9-.6-1.5-.5h0c-.5,0-1.1.6-1.2,1.1-.2,1.2.9,2.4,1.7,3,.7.5,1.5.7,2.3.7,1.3,0,2.5-.6,3.4-1.6.2-.2.9-1.2.7-2.1,0-.3-.3-.7-.9-.9Z"/>
</svg>